<?xml version="1.0" encoding="utf-8"?>
<!-- Generator: Adobe Illustrator 15.0.0, SVG Export Plug-In . SVG Version: 6.00 Build 0)  -->
<!DOCTYPE svg PUBLIC "-//W3C//DTD SVG 1.1//EN" "http://www.w3.org/Graphics/SVG/1.1/DTD/svg11.dtd">
<svg version="1.1" id="Layer_1" xmlns="http://www.w3.org/2000/svg" xmlns:xlink="http://www.w3.org/1999/xlink" x="0px" y="0px"
	 width="58px" height="116px" viewBox="-6 -41 58 116" enable-background="new -6 -41 58 116" xml:space="preserve">
<g>
	<g>
		<path fill="#FFFFFF" d="M23,62c8.837,0,16-7.163,16-16s-7.163-16-16-16S7,37.163,7,46S14.164,62,23,62"/>
	</g>
	<g>
		<path fill="#0E76BC" d="M19.958,56.764c-0.59,0-1.182-0.207-1.657-0.629c-1.033-0.916-1.128-2.496-0.212-3.529l5.993-6.762
			l-5.954-6.406c-0.939-1.011-0.882-2.593,0.129-3.533c1.012-0.939,2.593-0.881,3.533,0.129l7.5,8.068
			c0.877,0.943,0.894,2.398,0.04,3.361l-7.5,8.459C21.336,56.479,20.648,56.764,19.958,56.764z"/>
	</g>
</g>
<g>
	<g>
		<path fill="#FFFFFF" d="M23,4c8.837,0,16-7.163,16-16s-7.163-16-16-16S7-20.837,7-12S14.164,4,23,4"/>
	</g>
	<g>
		<path fill="#DE5A21" d="M19.958-1.236c-0.59,0-1.182-0.207-1.657-0.629c-1.033-0.916-1.128-2.496-0.212-3.529l5.993-6.762
			l-5.954-6.406c-0.939-1.011-0.882-2.593,0.129-3.533c1.012-0.939,2.593-0.881,3.533,0.129l7.5,8.068
			c0.877,0.943,0.894,2.398,0.04,3.361l-7.5,8.459C21.336-1.521,20.648-1.236,19.958-1.236z"/>
	</g>
</g>
</svg>
