<?xml version="1.0" encoding="utf-8"?>
<!-- Generator: Adobe Illustrator 15.0.0, SVG Export Plug-In . SVG Version: 6.00 Build 0)  -->
<!DOCTYPE svg PUBLIC "-//W3C//DTD SVG 1.1//EN" "http://www.w3.org/Graphics/SVG/1.1/DTD/svg11.dtd">
<svg version="1.1" id="Layer_1" xmlns="http://www.w3.org/2000/svg" xmlns:xlink="http://www.w3.org/1999/xlink" x="0px" y="0px"
	 width="40px" height="40px" viewBox="0 0 40 40" enable-background="new 0 0 40 40" xml:space="preserve">
<g>
	<path fill="#14427E" d="M31.829,19.838c-0.008-0.03-0.004-0.063-0.015-0.093c-0.004-0.012-0.016-0.02-0.02-0.031
		c-0.008-0.018-0.007-0.037-0.016-0.054c-2.123-4.062-6.742-6.973-11.617-6.973c-4.874,0-9.494,2.905-11.617,6.967
		c-0.009,0.018-0.008,0.037-0.015,0.055c-0.004,0.012-0.015,0.019-0.02,0.03c-0.012,0.03-0.007,0.063-0.014,0.094
		c-0.013,0.055-0.026,0.108-0.026,0.164s0.013,0.108,0.026,0.164c0.007,0.031,0.002,0.062,0.014,0.093
		c0.005,0.013,0.016,0.02,0.02,0.031c0.007,0.018,0.006,0.037,0.015,0.055c2.123,4.062,6.743,6.973,11.617,6.973
		c4.875,0,9.494-2.906,11.617-6.968c0.009-0.018,0.008-0.036,0.016-0.055c0.004-0.011,0.016-0.019,0.02-0.03
		c0.011-0.03,0.007-0.063,0.015-0.095c0.013-0.055,0.025-0.107,0.025-0.163S31.842,19.894,31.829,19.838 M20.163,25.849
		c-4.108,0-8.13-2.336-10.136-5.851c2.016-3.52,6.034-5.848,10.136-5.848c4.108,0,8.131,2.336,10.137,5.852
		C28.284,23.521,24.266,25.849,20.163,25.849"/>
	<path fill="#14427E" d="M20.163,17.074c-0.001,0-0.002,0-0.004,0c-1.613,0.003-2.921,1.311-2.921,2.924
		c0,0.202,0.164,0.366,0.366,0.366c0.201,0,0.365-0.164,0.365-0.366c0-1.209,0.984-2.193,2.193-2.193v-0.001
		c0.202,0,0.366-0.164,0.366-0.365C20.529,17.238,20.365,17.074,20.163,17.074"/>
	<path fill="#14427E" d="M20.146,14.879c-2.829,0-5.123,2.293-5.123,5.123s2.294,5.123,5.123,5.123c2.829,0,5.122-2.294,5.122-5.123
		S22.975,14.879,20.146,14.879 M20.146,24.394c-2.422,0-4.391-1.971-4.391-4.392c0-2.422,1.969-4.391,4.391-4.391
		c2.42,0,4.39,1.969,4.39,4.391C24.536,22.423,22.566,24.394,20.146,24.394"/>
</g>
</svg>
