<?xml version="1.0" encoding="utf-8"?>
<!-- Generator: Adobe Illustrator 15.0.0, SVG Export Plug-In . SVG Version: 6.00 Build 0)  -->
<!DOCTYPE svg PUBLIC "-//W3C//DTD SVG 1.1//EN" "http://www.w3.org/Graphics/SVG/1.1/DTD/svg11.dtd">
<svg version="1.1" id="Layer_1" xmlns="http://www.w3.org/2000/svg" xmlns:xlink="http://www.w3.org/1999/xlink" x="0px" y="0px"
	 width="30px" height="30px" viewBox="8 2 30 30" enable-background="new 8 2 30 30" xml:space="preserve">
<g>
	<g>
		<path fill="#0E76BC" d="M23,26.416c5.201,0,9.417-4.215,9.417-9.416c0-5.202-4.216-9.417-9.417-9.417S13.583,11.799,13.583,17
			C13.583,22.201,17.799,26.416,23,26.416"/>
	</g>
	<g>
		<path fill="#FFFFFF" d="M21.21,23.566c-0.401,0-0.805-0.143-1.129-0.43c-0.703-0.623-0.768-1.699-0.145-2.402l3.389-3.822
			l-3.362-3.617c-0.64-0.688-0.601-1.766,0.087-2.405c0.689-0.64,1.766-0.6,2.406,0.088l4.413,4.749
			c0.598,0.642,0.609,1.632,0.027,2.288l-4.414,4.979C22.148,23.373,21.679,23.566,21.21,23.566z"/>
	</g>
</g>
</svg>
