<?xml version="1.0" encoding="utf-8"?>
<!-- Generator: Adobe Illustrator 15.0.0, SVG Export Plug-In . SVG Version: 6.00 Build 0)  -->
<!DOCTYPE svg PUBLIC "-//W3C//DTD SVG 1.1//EN" "http://www.w3.org/Graphics/SVG/1.1/DTD/svg11.dtd">
<svg version="1.1" id="Layer_1" xmlns="http://www.w3.org/2000/svg" xmlns:xlink="http://www.w3.org/1999/xlink" x="0px" y="0px"
	 width="132px" height="120px" viewBox="0 0 132 120" enable-background="new 0 0 132 120" xml:space="preserve">
<g>
	<g>
		<path fill="#FFFFFF" d="M71.506,0C39.832,0,14.078,23.157,12.833,54.821H1.311c0,0,10.99,18.793,12.974,21.898
			C12.32,79.834,1,98.639,1,98.639h25.82c1.02,1.201,2.086,2.363,3.199,3.482C33.82,108,42.12,120,42.12,120
			s2.091-3.303,4.081-6.622c9.601,3.833,15.442,5.31,25.305,5.31c32.471,0,58.792-26.569,58.792-59.345
			C130.298,26.568,103.977,0,71.506,0"/>
	</g>
	<g>
		<path fill="#0E76BC" d="M71.289,2.51c-30.334,0-55.065,24.215-56.258,54.54H5.399c0,0,9.89,16.662,11.791,19.636
			c-1.882,2.983-12.022,19.59-12.022,19.59h23.325c0.977,1.15,1.998,2.265,3.064,3.336c3.64,5.63,10.186,15.721,10.186,15.721
			s1.475-2.473,3.38-5.65c7.817,4.148,16.72,6.496,26.166,6.496c31.096,0,56.305-25.445,56.305-56.834
			C127.594,27.954,102.385,2.51,71.289,2.51"/>
	</g>
</g>
<polygon fill="#FFFFFF" points="25.462,36.66 26.262,34.943 34.604,38.832 33.685,40.804 28.475,38.375 30.095,41.731 
	29.954,42.031 26.342,42.947 31.551,45.376 30.632,47.349 22.292,43.46 23.092,41.742 27.372,40.644 "/>
<path fill="#FFFFFF" d="M32.402,30.249l1.985,3.238l1.685-2.098L32.402,30.249z M41.062,30.648l-1.468,1.827l-1.868-0.58
	l-2.448,3.045l1.012,1.649l-1.444,1.798l-4.968-8.507l1.58-1.967L41.062,30.648z"/>
<g>
	<g>
		<path fill="#FFFFFF" d="M46.99,24.93c-0.527,1.28-1.081,2.061-2.084,2.877c-2.633,2.141-5.409,1.409-6.908-0.433
			c-1.549-1.905-1.515-4.888,1.078-6.998c0.944-0.767,1.958-1.245,2.965-1.368l1.294,1.591c-1.102,0.166-2.096,0.489-2.931,1.167
			c-1.44,1.171-1.722,2.895-0.693,4.163c1.04,1.276,2.784,1.37,4.195,0.222c0.884-0.719,1.241-1.496,1.816-2.78L46.99,24.93z"/>
	</g>
	<g>
		<path fill="#FFFFFF" d="M55.506,20.552c-0.797,1.133-1.509,1.772-2.667,2.348c-3.043,1.508-5.586,0.18-6.642-1.948
			c-1.089-2.2-0.4-5.103,2.594-6.588c1.091-0.541,2.187-0.783,3.194-0.681l0.912,1.837c-1.113-0.081-2.152,0.014-3.117,0.493
			c-1.662,0.824-2.319,2.444-1.593,3.907c0.732,1.475,2.412,1.952,4.041,1.144c1.021-0.506,1.542-1.187,2.385-2.313L55.506,20.552z"
			/>
	</g>
</g>
<path fill="#FFFFFF" d="M59.178,13.144l-0.412,3.776l2.616-0.628L59.178,13.144z M65.78,18.762L63.5,19.31l-1.122-1.605
	l-3.798,0.909l-0.212,1.924l-2.242,0.536l1.28-9.766l2.455-0.59L65.78,18.762z"/>
<g>
	<g>
		<path fill="#FFFFFF" d="M68.505,17.114l1.228-0.026c1.203-0.027,1.619-0.374,1.603-1.17c-0.015-0.673-0.586-1.024-1.354-1.008
			l-1.521,0.034L68.505,17.114z M68.42,13.258l1.141-0.026c0.793-0.016,1.103-0.537,1.092-1.021
			c-0.012-0.473-0.342-0.965-1.135-0.948l-1.139,0.026L68.42,13.258z M69.941,9.568c2.062-0.046,2.92,1.218,2.943,2.242
			c0.016,0.769-0.43,1.468-1.152,1.861c1.25,0.311,1.885,1.24,1.908,2.319c0.022,1.052-0.479,2.709-3.025,2.765l-4.251,0.094
			l-0.198-9.198L69.941,9.568z"/>
	</g>
</g>
<rect x="75.595" y="9.931" transform="matrix(-0.9921 -0.1252 0.1252 -0.9921 150.9447 38.548)" fill="#FFFFFF" width="2.176" height="9.2"/>
<polygon fill="#FFFFFF" points="91.473,23.995 85.404,21.254 89.193,12.87 91.177,13.766 88.081,20.615 92.166,22.459 "/>
<g>
	<g>
		<path fill="#FFFFFF" d="M100.322,21.121c-1.338-0.994-2.889-0.753-3.893,0.6c-1.01,1.355-0.795,2.91,0.541,3.904
			c1.327,0.987,2.879,0.745,3.887-0.609C101.863,23.663,101.646,22.107,100.322,21.121 M95.828,27.161
			c-2.569-1.909-2.602-4.894-1.197-6.777c1.326-1.786,4.194-2.765,6.837-0.801c2.64,1.965,2.509,4.995,1.188,6.771
			C101.244,28.249,98.348,29.034,95.828,27.161"/>
	</g>
</g>
<polygon fill="#FFFFFF" points="106.221,37.683 105.061,36.264 106.579,28.797 102.009,32.525 100.635,30.838 107.764,25.02 
	109.025,26.569 107.613,33.736 111.975,30.179 113.35,31.866 "/>
<g>
	<g>
		<path fill="#FFFFFF" d="M109.436,40.153l0.613,1.281c0.947,1.974,2.641,1.886,3.855,1.303c1.424-0.683,2.279-1.986,1.39-3.846
			l-0.604-1.258L109.436,40.153z M116.936,38.416c1.379,2.875,0.2,5.257-2.074,6.348c-2.385,1.142-4.822,0.55-6.327-2.59
			l-1.562-3.255l8.297-3.978L116.936,38.416z"/>
	</g>
	<g>
		<path fill="#FFFFFF" d="M119.281,50.826c-0.338-1.631-1.655-2.484-3.309-2.144c-1.65,0.342-2.523,1.647-2.188,3.278
			c0.334,1.616,1.652,2.469,3.305,2.128C118.741,53.748,119.616,52.444,119.281,50.826 M111.91,52.345
			c-0.646-3.134,1.312-5.384,3.611-5.857c2.18-0.45,4.97,0.727,5.637,3.95c0.664,3.224-1.447,5.399-3.614,5.846
			C115.23,56.76,112.544,55.418,111.91,52.345"/>
	</g>
</g>
<polygon fill="#FFFFFF" points="112.664,67.117 112.743,65.287 118.841,60.716 112.95,60.463 113.045,58.288 122.238,58.681 
	122.154,60.677 116.331,65.094 121.953,65.335 121.857,67.512 "/>
<g>
	<g>
		<path fill="#FFFFFF" d="M66.032,49.873c0.007,0-0.008-0.115,0-0.123c0.021-0.026,0.21,0.005,0.246,0
			c0.652-0.092,1.352,0.002,1.857-0.124c0.958-0.24,2.436-0.257,3.465-0.371c0.123-0.014,0.145-0.099,0.246-0.123
			c0.155-0.038,0.338,0.019,0.494,0c1.885-0.235,3.762-0.421,5.57-0.619c1.148-1.937,2.456-3.933,3.588-5.693
			c0.207-0.321,0.345-0.624,0.494-0.866c0.059-0.093,0.238-0.225,0.247-0.37c0.009-0.141,0.089-0.059,0.126-0.125
			c0.15-0.273,0.236-0.445,0.367-0.618c0.062-0.077,0.244-0.281,0.25-0.371c0.008-0.177,0.186-0.392,0.246-0.496
			c0.045-0.072,0.196-0.166,0.248-0.246c0.072-0.118,0.107-0.204,0.123-0.372c-0.067-0.376-0.416-0.606-0.617-0.866
			c-0.096-0.122-0.131-0.151-0.25-0.247c-0.039-0.034,0.037-0.205,0-0.249c-0.144-0.183-0.483-0.309-0.493-0.495
			c-0.009-0.141-0.078-0.055-0.123-0.123c-0.252-0.392-0.49-0.658-0.742-0.866c-0.04-0.033,0.03-0.203,0-0.248
			c-0.039-0.053-0.199-0.071-0.247-0.123c-0.089-0.094-0.04-0.268-0.124-0.371c-0.211-0.257-0.515-0.487-0.741-0.744
			c-0.791-0.886-1.461-1.77-2.228-2.597c-0.048-0.153-0.253-0.169-0.373-0.248c-0.318-0.212-0.818-0.225-1.236-0.247
			c-0.086-0.004-0.13-0.126-0.124-0.123c-1.007-0.105-2.229,0-3.465,0c-1.503,0-3.064,0.026-3.836,0.123
			c-0.66,0.082-1.357,0.107-2.104,0.247c-0.409,0.076-0.837,0.227-1.237,0.248c-0.116,0.006-0.09,0.113-0.124,0.123
			c-1.112,0.311-2.298,0.487-3.217,0.866c-0.076,0.03-0.185,0.121-0.249,0.125c-0.136,0.007-0.063,0.093-0.122,0.123
			c-0.162,0.078-0.36,0.018-0.496,0.124c-0.189,0.147-0.614,0.797-0.617,0.865c-0.009,0.145-0.081,0.056-0.125,0.125
			c-0.172,0.265-0.184,0.341-0.371,0.495c-0.04,0.031,0.029,0.201,0,0.248c-0.082,0.126-0.286,0.238-0.371,0.37
			c-0.013,0.021,0.001,0.098,0,0.124c-0.008,0.143-0.183,0.256-0.247,0.372c-0.568,1.004-1.006,1.938-1.487,2.844
			c-0.343,0.652-0.753,1.276-0.989,1.981c0.006,0.259,0.213,0.434,0.371,0.619c0.143,0.165,0.346,0.327,0.496,0.494
			c1.04,1.183,1.909,2.164,2.969,3.341c0.202,0.226,0.609,0.568,0.742,0.743c0.072,0.094,0.043,0.28,0.125,0.371
			c0.254,0.286,0.562,0.523,0.742,0.743c0.322,0.395,0.739,0.806,0.99,1.113c0.217,0.266,0.55,0.695,0.742,0.866
			C64.901,49.926,65.27,49.958,66.032,49.873 M95.439,35.67c-0.229-0.231-0.467-0.458-0.703-0.682
			c-0.028,2.046-0.19,3.958-0.369,5.853c0.195,0.14,0.258,0.404,0.371,0.618c0.15,0.28,0.205,0.361,0.371,0.495
			c0.037,0.031-0.024,0.204,0,0.248c0.039,0.07,0.203,0.165,0.248,0.248c0.07,0.132,0.062,0.263,0.123,0.37
			c0.041,0.072,0.205,0.165,0.248,0.248c0.086,0.173,0.03,0.332,0.123,0.495c0.043,0.078,0.188,0.144,0.246,0.247
			c0.071,0.121,0.047,0.239,0.123,0.372c0.045,0.07,0.197,0.169,0.248,0.247c0.03,0.043,0.122,0.21,0.124,0.248
			c0.011,0.183,0.188,0.381,0.247,0.494c0.217,0.4,0.43,0.743,0.619,1.113c0.064,0.128,0.051,0.234,0.124,0.372
			c0.038,0.069,0.207,0.166,0.249,0.247c0.064,0.129,0.076,0.271,0.122,0.373c0.032,0.066,0.121,0.189,0.124,0.247
			c0.008,0.136,0.093,0.061,0.124,0.123c0.122,0.242,0.146,0.527,0.247,0.742c0.029,0.066,0.21,0.172,0.248,0.248
			c0.09,0.174,0.043,0.321,0.125,0.496c0.025,0.062,0.091-0.002,0.123,0.123c0.018,0.074-0.03,0.18,0,0.247
			c0.023,0.061,0.216,0.173,0.246,0.248c0.106,0.252,0.147,0.598,0.248,0.866c0.203,0.542,0.477,1.04,0.617,1.609
			c0.146,0.579,0.131,1.249,0.248,1.856c0.002,0.01,0.104,0.04,0.123,0.123c0.021,0.079-0.018,0.169,0,0.248
			c0.112,0.516,0.262,0.949,0.248,1.484c0.414,0.163,0.633,0.36,0.867,0.496c0.27,0.156,0.43,0.262,0.62,0.371
			c0.267,0.157,0.442,0.238,0.617,0.37c0.075,0.059,0.278,0.244,0.368,0.248c0.182,0.01,0.386,0.186,0.496,0.249
			c0.071,0.039,0.166,0.203,0.248,0.248c0.135,0.071,0.264,0.056,0.371,0.123c0.074,0.042,0.162,0.201,0.248,0.247
			c0.135,0.073,0.26,0.056,0.37,0.123c0.073,0.047,0.166,0.197,0.248,0.248c0.07,0.044,0.13,0.073,0.202,0.095
			C105.128,50.021,101.633,41.85,95.439,35.67 M84.346,84.148c0.028-0.035,0.201,0.021,0.248,0c0.016-0.008-0.015-0.11,0-0.123
			c0.029-0.039,0.201,0.022,0.247,0c0.017-0.01-0.014-0.108,0-0.123c0.032-0.043,0.201,0.031,0.246,0
			c0.09-0.067,0.089-0.238,0.246-0.25c0.138-0.006,0.063-0.096,0.124-0.123c0.182-0.086,0.318-0.045,0.497-0.125
			c0.091-0.04,0.09-0.237,0.247-0.244c0.145-0.01,0.055-0.08,0.123-0.125c0.257-0.166,0.545-0.229,0.742-0.371
			c0.156-0.113,0.256-0.289,0.371-0.37c0.039-0.03,0.213-0.124,0.246-0.124c0.229-0.016,0.289-0.271,0.373-0.373
			c0.032-0.039,0.202,0.034,0.248,0c0.12-0.091,0.24-0.261,0.37-0.371c0.279-0.234,0.515-0.447,0.742-0.619
			c0.14-0.104,0.22-0.248,0.371-0.369c0.278-0.229,0.604-0.379,0.866-0.619c0.469-0.434,0.877-0.989,1.361-1.484
			c0.223-0.229,0.519-0.37,0.74-0.619c0.141-0.154,0.104-0.314,0.248-0.495s0.42-0.376,0.495-0.493
			c0.17-0.268,0.343-0.412,0.495-0.619c0.093-0.129,0.128-0.149,0.249-0.248c0.041-0.031-0.032-0.203,0-0.248
			c0.11-0.168,0.271-0.229,0.37-0.37c0.093-0.132,0.128-0.148,0.246-0.247c0.039-0.033-0.03-0.202,0-0.247
			c0.062-0.095,0.238-0.088,0.248-0.249c0.009-0.143,0.082-0.057,0.123-0.122c0.164-0.276,0.357-0.603,0.371-0.865
			c0.006-0.114,0.117-0.096,0.125-0.124c0.035-0.148-0.008-0.345,0-0.496c0.004-0.076,0.123-0.141,0.123-0.123
			c0.017-0.293-0.099-0.57-0.123-0.865c-0.027-0.328,0.019-0.664,0-0.99c-0.108-1.874-0.234-4.094-0.248-5.816
			c-2.447-0.48-4.977-0.994-7.301-1.484c-0.25-0.053-0.475-0.068-0.742-0.125c-0.01,0,0.008-0.113,0-0.121
			c-0.022-0.027-0.207,0.008-0.248,0c-0.478-0.098-0.656-0.152-1.113-0.248c-0.828-0.176-1.504-0.223-2.229-0.496
			c-1.267,0.852-2.576,2.168-3.711,3.095c-0.449,0.366-0.984,0.995-1.361,1.237c-0.518,0.332-0.881,0.795-1.359,1.236
			c-0.374,0.344-0.811,0.686-1.238,1.113c-0.533,0.534-1.99,1.863-2.102,2.475c-0.045,0.24,0.104,0.361,0.123,0.494
			c0.113,0.789,0.055,1.491,0.124,2.105c0,0.007,0.114-0.007,0.124,0c0.127,0.104-0.004,1.059,0,1.113
			c0.004,0.085,0.123,0.126,0.123,0.123c0.049,0.478,0.076,0.943,0.121,1.361c0.205,1.832,0.357,3.557,0.496,5.443
			c0.146,0.061,0.279,0.132,0.371,0.248c1.406,0.193,2.703,0.561,4.084,0.865c0.397,0.088,0.556,0.107,0.865,0.123
			c0.105,0.007,0.104,0.121,0.125,0.123c0.357,0.076,0.746,0.045,1.111,0.127c0.01,0-0.008,0.113,0,0.123
			c0.064,0.062,0.402-0.021,0.494,0c0.011,0.002-0.008,0.113,0,0.123c0.063,0.062,0.404-0.021,0.494,0
			C83.416,84.299,84.008,84.561,84.346,84.148 M73.208,76.85c-0.026-0.117,0.019-0.252,0-0.371c-0.104-0.766-0.155-1.32-0.248-2.104
			c-0.104-0.897-0.167-1.847-0.37-2.724c-0.199-0.24-0.492-0.344-0.744-0.496c-0.219-0.133-0.438-0.36-0.617-0.37
			c-0.144-0.009-0.056-0.081-0.123-0.122c-0.508-0.312-1.024-0.66-1.607-0.865c-0.021-0.074-0.07-0.12-0.156-0.128
			c-1.874,3.052-3.559,5.776-4.244,6.851c0.205,0.323,0.514,0.808,0.898,1.412c0.015,0.012,0.028,0.023,0.038,0.031
			c0.01,0.008,0.013,0.023,0.013,0.044c0.307,0.481,0.663,1.04,1.055,1.654c0.02,0.01,0.035,0.021,0.045,0.032
			c0.025,0.033,0.041,0.076,0.055,0.123c0.367,0.576,0.765,1.201,1.183,1.855h0.002c0.005,0.005,0.009,0.01,0.009,0.02
			c0.617,0.968,1.279,2.004,1.953,3.062c0.006,0.004,0.012,0.008,0.018,0.012c0.234-0.236,0.566-0.342,0.867-0.494
			c0.328-0.166,0.666-0.315,0.99-0.496c0.014-0.008-0.015-0.104,0-0.123c0.027-0.033,0.2,0.021,0.248,0
			c0.014-0.008-0.014-0.107,0-0.123c0.029-0.037,0.2,0.025,0.246,0c0.018-0.01-0.014-0.106,0-0.125c0.034-0.041,0.203,0.033,0.246,0
			c0.188-0.139,0.266-0.356,0.497-0.369c0.144-0.008,0.054-0.078,0.124-0.124c0.109-0.075,0.465-0.099,0.369-0.37
			C73.616,80.771,73.552,78.432,73.208,76.85 M47.223,43.438c-0.145-0.422-0.475-0.992-0.494-1.361
			c-0.007-0.122-0.109-0.081-0.124-0.124c-0.117-0.353-0.035-0.448-0.124-0.742c-0.013-0.047-0.225-0.183-0.247-0.248
			c-0.126-0.363-0.113-0.633-0.248-0.743c-0.033-0.026,0.017-0.202,0-0.247c-0.055-0.148-0.135-0.279-0.248-0.371
			c-0.142-0.118-0.004-0.535-0.123-0.619c-0.006-0.075-0.018-0.146-0.124-0.123c-0.799,1.014-1.427,2.202-2.227,3.217
			c0.005,0.018,0.011,0.035,0.016,0.052c0.201,0.312,0.412,0.637,0.629,0.971c0.036,0.038,0.07,0.068,0.097,0.09
			c0.015,0.012,0.015,0.043,0.01,0.076c0.173,0.269,0.351,0.541,0.532,0.821c0.079,0.097,0.152,0.177,0.201,0.218
			c0.018,0.013,0.014,0.056,0.007,0.101c0.14,0.216,0.282,0.436,0.426,0.657c0.119,0.161,0.232,0.291,0.309,0.355
			c0.022,0.018,0.012,0.073,0.003,0.128c0.072,0.112,0.145,0.222,0.218,0.336c0.009,0.009,0.018,0.019,0.026,0.031
			c0.024,0.035,0.049,0.077,0.073,0.123c0.056,0.087,0.113,0.175,0.171,0.262c0.065,0.07,0.145,0.116,0.252,0.11
			c0.3-0.896,0.904-1.488,1.237-2.351C47.261,43.921,47.304,43.674,47.223,43.438 M102.659,72.27
			c-1.769,0.42-3.453,0.922-5.321,1.239c-0.127,0.226-0.318,0.451-0.371,0.493c-0.037,0.029,0.021,0.204,0,0.246
			c-0.009,0.016-0.109-0.012-0.126,0c-0.038,0.031,0.028,0.204,0,0.248c-0.009,0.018-0.106-0.014-0.123,0
			c-0.04,0.033,0.033,0.205,0,0.249c-0.065,0.09-0.239,0.087-0.247,0.247c-0.008,0.14-0.088,0.06-0.125,0.123
			c-0.062,0.113-0.043,0.252-0.123,0.371c-0.099,0.152-0.271,0.222-0.369,0.371c-0.111,0.164-0.123,0.319-0.248,0.494
			c-0.109,0.151-0.267,0.24-0.371,0.373c-0.129,0.158-0.246,0.338-0.373,0.493c-0.221,0.276-0.401,0.626-0.615,0.866
			c-0.311,0.342-0.838,0.764-1.116,0.991c-0.04,0.034,0.036,0.202,0,0.245c-0.116,0.148-0.364,0.231-0.495,0.371
			c-0.226,0.246-0.632,0.856-0.865,0.867c-0.143,0.006-0.054,0.08-0.123,0.125c-0.406,0.262-0.69,0.613-0.988,0.864
			c-0.174,0.144-0.325,0.229-0.496,0.371c-0.291,0.245-0.508,0.558-0.742,0.743c-0.132,0.104-0.342,0.133-0.495,0.247
			c-0.055,0.042-0.071,0.196-0.124,0.249c-0.097,0.09-0.257,0.037-0.369,0.121c-0.14,0.104-0.23,0.27-0.371,0.371
			c-0.129,0.096-0.15,0.129-0.248,0.25c-0.035,0.037-0.205-0.032-0.25,0c-0.168,0.113-0.225,0.274-0.371,0.369
			c-0.237,0.156-0.412,0.125-0.616,0.248c-0.052,0.027-0.07,0.207-0.125,0.246c-0.032,0.024-0.371,0.125-0.371,0.125
			c-0.187,0.01-0.376,0.187-0.495,0.246c-0.359,0.184-0.715,0.407-1.113,0.496c-0.365,1.944-1.019,3.6-1.361,5.568
			c0.39-0.01,0.363-0.088,0.65-0.116c0.062-0.024,0.125-0.048,0.188-0.075c0.009-0.025,0.012-0.05,0.029-0.056
			c0.234-0.076,0.502-0.17,0.727-0.246c0.459-0.192,0.91-0.396,1.359-0.606c0.004-0.006,0.01-0.01,0.018-0.014
			c0.023-0.012,0.048-0.021,0.068-0.029c0.209-0.098,0.418-0.199,0.623-0.302c0.019-0.021,0.035-0.032,0.051-0.042
			c0.033-0.018,0.066-0.025,0.098-0.035c0.503-0.256,1-0.525,1.49-0.806c0.005-0.011,0.012-0.021,0.021-0.024
			c0.065-0.041,0.125-0.07,0.18-0.094c0.171-0.1,0.341-0.199,0.511-0.301c0.017-0.047,0.032-0.088,0.052-0.102
			c0.028-0.02,0.069-0.013,0.114-0.006c0.063-0.039,0.131-0.078,0.194-0.119c0.021-0.054,0.039-0.107,0.062-0.123
			c0.076-0.049,0.178-0.062,0.266-0.086c0.062-0.037,0.119-0.076,0.178-0.113c0.015-0.018,0.031-0.032,0.053-0.047
			c0.229-0.146,0.251-0.228,0.371-0.371c0.023-0.029,0.125,0.003,0.191,0.009c0.031-0.022,0.062-0.042,0.092-0.065
			c0.031-0.062,0.062-0.162,0.087-0.189c0.024-0.028,0.116,0,0.184,0.005c0.086-0.06,0.17-0.119,0.255-0.183
			c0.139-0.146,0.271-0.317,0.43-0.44c0.246-0.192,0.51-0.308,0.74-0.496c0.09-0.071,0.145-0.169,0.248-0.246
			c0.394-0.296,0.649-0.56,0.99-0.868c0.352-0.314,0.695-0.646,0.99-0.865c0.584-0.436,0.988-0.979,1.482-1.483
			c0.141-0.144,0.325-0.248,0.478-0.365c0.095-0.103,0.185-0.207,0.274-0.309c0.116-0.185,0.215-0.397,0.362-0.564
			c0.101-0.114,0.271-0.231,0.423-0.348c0.108-0.134,0.215-0.267,0.319-0.396c0.007-0.097,0.038-0.086,0.071-0.094
			c2.016-2.525,3.638-5.298,4.839-8.249C102.834,72.277,102.777,72.244,102.659,72.27 M83.479,42.078
			c-0.072,0.118-0.045,0.241-0.125,0.372c-0.045,0.073-0.193,0.165-0.246,0.247c-0.072,0.118-0.045,0.24-0.123,0.371
			c-0.045,0.075-0.195,0.166-0.25,0.247c-0.158,0.262-0.264,0.435-0.367,0.62c-0.158,0.27-0.241,0.444-0.373,0.619
			c-0.178,0.234-0.26,0.424-0.369,0.617c-0.146,0.25-0.257,0.435-0.372,0.62c-0.047,0.073-0.198,0.163-0.248,0.247
			c-0.075,0.124-0.06,0.267-0.124,0.371c-0.046,0.074-0.199,0.164-0.246,0.247c-0.074,0.126-0.066,0.268-0.125,0.372
			c-0.146,0.251-0.26,0.426-0.371,0.618c-0.146,0.252-0.26,0.427-0.371,0.619c-0.065,0.115-0.195,0.159-0.248,0.248
			c-0.121,0.208-0.141,0.545-0.248,0.742c-0.039,0.076-0.188,0.145-0.246,0.247c-0.068,0.122-0.109,0.199-0.125,0.371
			c0.674,1.408,1.279,2.905,1.857,4.208c0.206,0.466,0.405,1.007,0.618,1.485c0.026,0.061,0.093-0.002,0.124,0.123
			c0.018,0.073-0.029,0.179,0,0.247c0.023,0.062,0.214,0.175,0.246,0.248c0.176,0.384,0.23,0.852,0.372,1.113
			c0.038,0.069,0.212,0.165,0.249,0.247c0.027,0.069-0.021,0.176,0,0.249c0.021,0.091,0.111,0.096,0.121,0.125
			c0.07,0.194,0.044,0.312,0.123,0.493c0.029,0.063,0.215,0.172,0.248,0.248c0.031,0.067-0.019,0.174,0,0.247
			c0.026,0.106,0.104,0.081,0.125,0.124c0.103,0.236,0.15,0.521,0.246,0.743c0.213,0.491,0.541,0.934,0.619,1.485
			c1.641,0.229,3.017,0.568,4.455,0.865c1.012,0.209,1.988,0.412,2.969,0.619c1.51,0.318,2.985,0.643,4.455,0.99
			c0.041-0.287,0.363-0.453,0.371-0.619c0.01-0.178,0.238-0.207,0.246-0.371c0.008-0.143,0.082-0.057,0.125-0.125
			c0.15-0.23,0.137-0.375,0.247-0.617c0.019-0.041,0.216-0.078,0.249-0.125c0.038-0.057-0.029-0.184,0-0.246
			c0.016-0.04,0.217-0.079,0.246-0.124c0.038-0.058-0.027-0.185,0-0.247c0.018-0.042,0.219-0.078,0.247-0.125
			c0.04-0.057-0.028-0.183,0-0.246c0.021-0.041,0.217-0.078,0.248-0.125c0.101-0.152,0.038-0.336,0.125-0.494
			c-0.008,0.013,0.12-0.121,0.122-0.124c0.1-0.105,0.146-0.267,0.248-0.371c0.109-0.113,0.158-0.23,0.247-0.372
			c0.089-0.139,0.159-0.235,0.248-0.371c0.09-0.138,0.161-0.235,0.249-0.371c0.238-0.377,0.437-0.734,0.492-1.115
			c0.106-0.702-0.088-1.574-0.246-2.475c-0.412-2.32-1.131-4.47-1.855-6.309c-0.141-0.354-0.229-0.675-0.371-0.99
			c-0.082-0.18-0.24-0.351-0.249-0.494c-0.013-0.26-0.413-0.801-0.495-0.867c-0.035-0.03,0.022-0.202,0-0.247
			c-0.008-0.015-0.107,0.01-0.123,0c-0.039-0.033,0.025-0.203,0-0.248c-0.02-0.035-0.214-0.095-0.246-0.123
			c-0.041-0.034,0.03-0.204,0-0.248c-0.064-0.092-0.238-0.089-0.248-0.248c-0.008-0.14-0.09-0.058-0.125-0.124
			c-0.094-0.167-0.045-0.324-0.121-0.494c-0.01-0.016-0.11,0.011-0.125,0c-0.037-0.03,0.021-0.202,0-0.248
			c-0.008-0.015-0.108,0.012-0.125,0c-0.041-0.032-0.096-0.329-0.123-0.371c-0.088-0.138-0.125-0.147-0.246-0.248
			c-0.036-0.029,0.021-0.202,0-0.247c-0.008-0.017-0.109,0.012-0.124,0c-0.042-0.033-0.099-0.329-0.124-0.372
			c-0.172-0.265-0.186-0.341-0.371-0.494c-0.041-0.033,0.033-0.203,0-0.247c-0.128-0.171-0.822-0.741-0.867-0.743
			c-0.141-0.007-0.059-0.089-0.124-0.123c-0.455-0.248-1.108-0.456-1.729-0.62c-1.977-0.517-4.6-0.621-6.559-0.866
			c-0.359,0.282-0.521,0.759-0.744,1.114c-0.048,0.074-0.201,0.162-0.248,0.247c-0.07,0.137-0.056,0.263-0.123,0.372
			C83.68,41.905,83.529,41.996,83.479,42.078 M55.885,42.202c-0.275,0.171-0.761,0.19-0.99,0.248
			c-0.297,0.073-0.966,0.334-1.112,0.37c-1.56,0.39-2.969,0.807-4.579,1.115c-0.74,1.312-1.441,2.663-2.173,3.983
			c2.775,4.285,5.588,8.635,6.379,9.875h8.661c0.395-2.369,0.899-4.63,1.362-6.929c-2.401-2.878-4.878-5.68-7.3-8.539
			C56.009,42.326,55.985,42.224,55.885,42.202 M57.865,31.561c0.489,0.145,1.088,0.215,1.609,0.371
			c0.035,0.011,0.021,0.098,0.123,0.123c0.077,0.02,0.172-0.021,0.248,0c0.425,0.119,0.861,0.386,1.237,0.372
			c0.312-0.012,0.495-0.199,0.619-0.248c0.031-0.012,0.091,0.001,0.123,0c0.125-0.005,0.078-0.108,0.125-0.124
			c0.367-0.129,0.759-0.143,1.113-0.246c0.011-0.004-0.01-0.113,0-0.125c0.063-0.063,0.403,0.02,0.495,0
			c0.011-0.002-0.01-0.114,0-0.123c0.064-0.064,0.401,0.022,0.495,0c0.011-0.004-0.009-0.115,0-0.125
			c0.123-0.123,0.378,0.019,0.495-0.123c0.026-0.033,0.324,0.003,0.371,0c0.106-0.006,0.103-0.119,0.123-0.123
			c0.353-0.076,0.725-0.058,1.115-0.125c0.354-0.06,0.738-0.181,1.111-0.247c0.391-0.069,0.851-0.054,1.238-0.124
			c0.422-0.075,0.753-0.218,1.113-0.248c1.831-0.145,4.473-0.081,5.814,0.126c0.646,0.098,1.17,0.161,1.733,0.246
			c0.831,0.127,0.959,0.113,1.481-0.246c0.115-0.079,0.152-0.177,0.248-0.249c0.105-0.081,0.254-0.04,0.371-0.124
			c0.178-0.125,0.334-0.374,0.496-0.494c0.108-0.082,0.254-0.041,0.371-0.125c0.104-0.072,0.143-0.295,0.247-0.371
			c0.104-0.073,0.281-0.067,0.372-0.123c0.073-0.045,0.168-0.193,0.247-0.248c0.213-0.151,0.324-0.17,0.495-0.248
			c0.038-0.017,0.08-0.215,0.125-0.247c0.113-0.082,0.27-0.048,0.369-0.123c0.09-0.068,0.142-0.172,0.246-0.248
			c0.139-0.097,0.318-0.176,0.453-0.286c-3.467-1.194-7.146-1.818-10.916-1.818c-3.452,0-6.827,0.523-10.033,1.528
			c-0.309,0.111-0.612,0.22-0.908,0.329c-0.608,0.218-1.202,0.479-1.703,0.611c-0.321,0.13-0.641,0.266-0.959,0.406
			c-0.071,0.04-0.133,0.076-0.185,0.096c-0.058,0.023-0.109,0.044-0.159,0.063c-0.685,0.314-1.362,0.653-2.024,1.014
			c-0.015,0.014-0.028,0.026-0.045,0.038c-0.316,0.2-0.706,0.308-0.866,0.619c0.802,0.305,2.047,0.665,2.847,0.864
			C57.824,31.457,57.85,31.556,57.865,31.561"/>
	</g>
</g>
<polygon fill="#FFFFFF" points="51.265,92.686 71.902,92.686 61.599,76.516 71.747,60.639 51.482,60.639 41.47,44.922 
	31.556,60.639 11.192,60.639 21.441,76.674 11.341,92.686 31.675,92.686 41.47,108.014 "/>
<g>
	<g>
		<path fill="#0E76BC" d="M29.347,78.826c1.235,0,2.236-1.002,2.236-2.235c0-1.235-1.001-2.237-2.236-2.237
			c-1.235,0-2.237,1.002-2.237,2.237C27.11,77.824,28.112,78.826,29.347,78.826 M49.005,89.35c0,0,0.074-0.422,0.074-1.07V73.508
			h-3.217c0,0,0.046,12.196,0.046,13.035c0,0.844-0.075,1.289-0.075,1.289l-2.396,3.202c0,0-0.238,0.414-1.057,0.414h-7.16
			l6.563,9.774L49.005,89.35z M39.716,70.941c0,0,0.331,0.433,0.331,1.146v17.99l3.958-5.177V71.402h9.653
			c0,0,1.237,0.871,1.237,2.197v7.948h-3.96v7.673H65.04l-7.67-12.744l7.547-12.25H48.213l-2.715,4.657
			c-0.15,0.261-0.513,0.291-0.704,0.058l-3.882-4.715h-5.196L39.716,70.941z M33.487,64.35l-4.453,6.93h4.207v10.146H22.724
			l-4.95,7.797h20.418v-7.797h-1.609V69.486L33.487,64.35z M22.476,71.279h2.104l-1.238,1.609l1.733,2.351l2.599-3.837v-7.176
			h-9.652L22.476,71.279z M47.966,61.752l-2.847,4.825c0,0-2.901-4.206-3.464-4.206H34.85l6.682-10.766L47.966,61.752z"/>
	</g>
</g>
<polygon fill="#FFFFFF" points="66.654,111.534 60.167,110.666 61.366,101.701 63.487,101.984 62.508,109.307 66.875,109.893 "/>
<rect x="69.13" y="102.467" transform="matrix(-0.9999 0.0155 -0.0155 -0.9999 142.0518 212.8759)" fill="#FFFFFF" width="2.139" height="9.044"/>
<g>
	<g>
		<path fill="#FFFFFF" d="M77.848,103.521c-1.611,0.293-2.479,1.566-2.187,3.197c0.295,1.633,1.557,2.525,3.167,2.234
			c1.599-0.29,2.469-1.566,2.173-3.196C80.707,104.125,79.445,103.234,77.848,103.521 M79.163,110.809
			c-3.099,0.559-5.261-1.426-5.67-3.697c-0.39-2.154,0.836-4.867,4.021-5.442c3.185-0.571,5.271,1.56,5.657,3.699
			C83.584,107.652,82.2,110.259,79.163,110.809"/>
	</g>
</g>
<polygon fill="#FFFFFF" points="95.357,105.021 93.719,105.771 86.988,102.484 89.406,107.752 87.462,108.646 83.688,100.423 
	85.473,99.602 91.943,102.719 89.637,97.688 91.58,96.797 "/>
<g>
	<g>
		<path fill="#FFFFFF" d="M99.057,94.188c-1.35,0.275-2.078,0.539-2.664,0.977c-0.615,0.461-0.834,0.986-0.563,1.35
			c0.817,1.096,4.089-1.828,5.978,0.702c1.039,1.396,0.53,3.031-1.002,4.175c-1.199,0.897-2.041,1.012-3.005,1.152l-1.167-1.564
			c1.504-0.047,2.293-0.254,3.049-0.817c0.655-0.489,0.827-0.997,0.51-1.423c-0.889-1.19-4.064,1.859-6.008-0.747
			c-0.938-1.255-0.526-2.851,1.067-4.041c0.767-0.574,1.59-0.925,2.75-1.179L99.057,94.188z"/>
	</g>
</g>
<polygon fill="#FFFFFF" points="106.334,85.132 103.977,88.084 105.552,89.343 107.911,86.393 109.206,87.427 106.85,90.377 
	109.749,92.695 108.411,94.366 101.346,88.721 105.04,84.1 "/>
<g>
	<g>
		<path fill="#FFFFFF" d="M116.963,79.486c0.034,1.359-0.158,2.279-0.736,3.414c-1.522,2.966-4.312,3.401-6.388,2.336
			c-2.151-1.104-3.3-3.803-1.8-6.725c0.545-1.062,1.27-1.895,2.126-2.402l1.795,0.92c-0.928,0.588-1.694,1.268-2.178,2.209
			c-0.833,1.625-0.403,3.287,1.024,4.021c1.439,0.737,3.047,0.134,3.862-1.456c0.513-0.996,0.524-1.837,0.535-3.221L116.963,79.486z
			"/>
	</g>
</g>
</svg>
