<?xml version="1.0" encoding="utf-8"?>
<!-- Generator: Adobe Illustrator 15.0.0, SVG Export Plug-In . SVG Version: 6.00 Build 0)  -->
<!DOCTYPE svg PUBLIC "-//W3C//DTD SVG 1.1//EN" "http://www.w3.org/Graphics/SVG/1.1/DTD/svg11.dtd">
<svg version="1.1" id="Layer_1" xmlns="http://www.w3.org/2000/svg" xmlns:xlink="http://www.w3.org/1999/xlink" x="0px" y="0px"
	 width="88px" height="95px" viewBox="0 0 88 95" enable-background="new 0 0 88 95" xml:space="preserve">
<g>
	<path fill="#FFFFFF" d="M76.035,47.778c0,0,1.088,21.972-26.62,27.993C21.709,69.75,22.796,47.778,22.796,47.778V1.241h53.241
		v46.538H76.035z"/>
	<g>
		<path fill="#FFFFFF" d="M20.52,79.989c-0.145-0.093-0.312-0.167-0.503-0.224c-0.191-0.058-0.416-0.086-0.674-0.086
			c-0.459,0-0.844,0.142-1.153,0.425c-0.31,0.283-0.465,0.657-0.465,1.12c0,0.458,0.158,0.829,0.473,1.112
			c0.314,0.283,0.709,0.425,1.185,0.425c0.263,0,0.495-0.025,0.697-0.075c0.201-0.051,0.374-0.121,0.519-0.212l-0.101,1.07
			c-0.145,0.082-0.321,0.146-0.53,0.192s-0.463,0.069-0.763,0.069c-0.707,0-1.333-0.23-1.877-0.691
			c-0.545-0.462-0.817-1.092-0.817-1.891s0.272-1.429,0.817-1.89c0.544-0.462,1.17-0.692,1.877-0.692
			c0.299,0,0.568,0.027,0.805,0.081c0.237,0.055,0.436,0.128,0.596,0.221L20.52,79.989z"/>
		<path fill="#FFFFFF" d="M24.066,83.698v-1.959h-1.912v1.959h-1.2v-4.939h1.2v1.951h1.912v-1.951h1.192v4.939H24.066z"/>
		<path fill="#FFFFFF" d="M28.985,83.698l-0.386-1.029h-1.622l-0.379,1.029H25.46l1.943-4.986h0.829l1.943,4.986H28.985z
			 M27.945,80.767c-0.015-0.041-0.039-0.113-0.069-0.214c-0.031-0.102-0.06-0.198-0.085-0.292c-0.01,0.036-0.035,0.111-0.073,0.226
			c-0.039,0.114-0.071,0.208-0.097,0.28l-0.356,0.996h1.038L27.945,80.767z"/>
		<path fill="#FFFFFF" d="M33.287,83.698l-1.332-1.943H31.53v1.943h-1.154v-4.939h1.843c0.444,0,0.821,0.136,1.13,0.406
			c0.31,0.271,0.464,0.634,0.464,1.088c0,0.284-0.07,0.535-0.209,0.755s-0.323,0.381-0.55,0.484l1.572,2.206H33.287z M32.041,79.703
			H31.53v1.107h0.511c0.17,0,0.316-0.047,0.438-0.14c0.121-0.093,0.182-0.232,0.182-0.418c0-0.17-0.062-0.305-0.186-0.402
			C32.35,79.752,32.206,79.703,32.041,79.703z"/>
		<path fill="#FFFFFF" d="M36.926,79.711v3.987h-1.192v-3.987h-1.494v-0.952h4.173v0.952H36.926z"/>
		<path fill="#FFFFFF" d="M38.613,83.698v-4.939h2.88v0.983h-1.68v0.983h1.37v0.998h-1.37v0.991h1.896v0.983H38.613z"/>
		<path fill="#FFFFFF" d="M44.899,83.698l-1.331-1.943h-0.426v1.943h-1.153v-4.939h1.842c0.444,0,0.821,0.136,1.131,0.406
			c0.31,0.271,0.465,0.634,0.465,1.088c0,0.284-0.07,0.535-0.209,0.755c-0.14,0.22-0.323,0.381-0.551,0.484l1.572,2.206H44.899z
			 M43.653,79.703h-0.511v1.107h0.511c0.17,0,0.316-0.047,0.438-0.14s0.182-0.232,0.182-0.418c0-0.17-0.062-0.305-0.186-0.402
			C43.963,79.752,43.818,79.703,43.653,79.703z"/>
		<path fill="#FFFFFF" d="M49.042,83.807c-0.305,0-0.584-0.036-0.836-0.107c-0.253-0.072-0.473-0.175-0.658-0.309l-0.108-1.147
			c0.475,0.371,0.991,0.557,1.548,0.557c0.46,0,0.689-0.159,0.689-0.479c0-0.149-0.053-0.27-0.158-0.359
			c-0.106-0.091-0.456-0.24-1.049-0.448c-0.594-0.209-0.891-0.669-0.891-1.38c0-0.428,0.153-0.784,0.461-1.07
			c0.307-0.285,0.723-0.429,1.25-0.429c0.278,0,0.516,0.027,0.712,0.081c0.196,0.055,0.362,0.126,0.496,0.213l-0.093,1.007
			c-0.125-0.082-0.282-0.155-0.473-0.217c-0.191-0.062-0.375-0.093-0.55-0.093c-0.202,0-0.356,0.04-0.465,0.12
			c-0.108,0.079-0.163,0.181-0.163,0.305c0,0.118,0.054,0.219,0.159,0.302c0.106,0.082,0.339,0.183,0.696,0.301
			c0.359,0.119,0.662,0.313,0.907,0.584c0.244,0.271,0.367,0.594,0.367,0.97c0,0.494-0.158,0.885-0.476,1.171
			C50.091,83.664,49.636,83.807,49.042,83.807z"/>
		<path fill="#FFFFFF" d="M53.555,79.711v3.987h-1.191v-3.987h-1.494v-0.952h4.172v0.952H53.555z"/>
		<path fill="#FFFFFF" d="M58.42,83.698l-0.385-1.029h-1.623l-0.379,1.029h-1.139l1.943-4.986h0.83l1.941,4.986H58.42z
			 M57.381,80.767c-0.016-0.041-0.039-0.113-0.07-0.214c-0.031-0.102-0.059-0.198-0.084-0.292c-0.012,0.036-0.035,0.111-0.074,0.226
			s-0.07,0.208-0.098,0.28l-0.355,0.996h1.037L57.381,80.767z"/>
		<path fill="#FFFFFF" d="M63.838,83.752l-1.922-2.105c-0.123-0.14-0.27-0.309-0.441-0.507c-0.17-0.199-0.33-0.392-0.479-0.577
			l0.008,1.045v2.091h-1.201v-4.939h0.969l1.672,1.843c0.113,0.129,0.246,0.281,0.398,0.457c0.152,0.175,0.287,0.338,0.406,0.487
			l-0.008-0.929v-1.858h1.201v4.993H63.838z"/>
		<path fill="#FFFFFF" d="M66.648,83.698h-1.666v-4.939h1.666c0.736,0,1.363,0.225,1.877,0.674c0.514,0.448,0.77,1.048,0.77,1.796
			c0,0.743-0.256,1.341-0.77,1.792C68.012,83.473,67.385,83.698,66.648,83.698z M66.508,79.788h-0.371v2.881h0.371
			c0.455,0,0.832-0.124,1.135-0.372s0.453-0.604,0.453-1.068c0-0.454-0.152-0.808-0.457-1.061S66.957,79.788,66.508,79.788z"/>
		<path fill="#FFFFFF" d="M72.867,83.698l-0.387-1.029h-1.623l-0.377,1.029h-1.139l1.943-4.986h0.828l1.943,4.986H72.867z
			 M71.826,80.767c-0.016-0.041-0.037-0.113-0.068-0.214c-0.031-0.102-0.061-0.198-0.086-0.292c-0.01,0.036-0.035,0.111-0.074,0.226
			c-0.037,0.114-0.07,0.208-0.096,0.28l-0.355,0.996h1.037L71.826,80.767z"/>
		<path fill="#FFFFFF" d="M77.162,83.698l-1.332-1.943h-0.426v1.943H74.25v-4.939h1.844c0.443,0,0.82,0.136,1.129,0.406
			c0.311,0.271,0.465,0.634,0.465,1.088c0,0.284-0.068,0.535-0.209,0.755c-0.139,0.22-0.322,0.381-0.549,0.484l1.572,2.206H77.162z
			 M75.916,79.703h-0.512v1.107h0.512c0.17,0,0.314-0.047,0.436-0.14c0.123-0.093,0.184-0.232,0.184-0.418
			c0-0.17-0.062-0.305-0.186-0.402C76.225,79.752,76.08,79.703,75.916,79.703z"/>
		<path fill="#FFFFFF" d="M80.127,83.698h-1.666v-4.939h1.666c0.736,0,1.363,0.225,1.877,0.674c0.514,0.448,0.77,1.048,0.77,1.796
			c0,0.743-0.256,1.341-0.77,1.792C81.49,83.473,80.863,83.698,80.127,83.698z M79.986,79.788h-0.371v2.881h0.371
			c0.455,0,0.832-0.124,1.135-0.372s0.453-0.604,0.453-1.068c0-0.454-0.152-0.808-0.457-1.061S80.436,79.788,79.986,79.788z"/>
	</g>
</g>
<g>
	<path fill="#FFFFFF" d="M45.534,88.936c-0.145-0.093-0.312-0.167-0.502-0.224c-0.191-0.058-0.416-0.086-0.674-0.086
		c-0.46,0-0.844,0.142-1.154,0.425c-0.31,0.283-0.465,0.657-0.465,1.12c0,0.458,0.158,0.829,0.473,1.112s0.71,0.425,1.186,0.425
		c0.263,0,0.494-0.025,0.696-0.075c0.201-0.051,0.374-0.121,0.519-0.212l-0.101,1.07c-0.145,0.082-0.321,0.146-0.53,0.192
		s-0.463,0.069-0.763,0.069c-0.707,0-1.333-0.23-1.878-0.691c-0.545-0.462-0.816-1.092-0.816-1.891s0.271-1.429,0.816-1.89
		c0.545-0.462,1.171-0.692,1.878-0.692c0.3,0,0.567,0.027,0.806,0.081c0.236,0.055,0.436,0.128,0.596,0.221L45.534,88.936z"/>
	<path fill="#FFFFFF" d="M45.968,92.645v-4.939h1.201v3.91h1.981v1.029H45.968z"/>
	<path fill="#FFFFFF" d="M51.48,92.753c-0.609,0-1.116-0.164-1.524-0.491c-0.408-0.328-0.612-0.763-0.612-1.305v-3.252h1.199v3.144
		c0,0.253,0.088,0.458,0.26,0.615s0.404,0.236,0.693,0.236s0.521-0.077,0.697-0.232c0.174-0.155,0.262-0.361,0.262-0.619v-3.144
		h1.17v3.252c0,0.536-0.205,0.97-0.615,1.301C52.6,92.588,52.09,92.753,51.48,92.753z"/>
	<path fill="#FFFFFF" d="M56.033,92.645h-1.865v-4.939h1.656c0.402,0,0.744,0.12,1.025,0.36c0.281,0.239,0.422,0.556,0.422,0.948
		c0,0.165-0.035,0.325-0.107,0.479c-0.072,0.155-0.174,0.269-0.303,0.341c0.223,0.072,0.422,0.231,0.596,0.477
		c0.176,0.245,0.264,0.512,0.264,0.801c0,0.465-0.162,0.836-0.486,1.115C56.908,92.505,56.508,92.645,56.033,92.645z M55.639,88.588
		H55.26v0.998h0.379c0.154,0,0.283-0.039,0.387-0.119s0.154-0.206,0.154-0.376s-0.051-0.297-0.154-0.379
		C55.922,88.629,55.793,88.588,55.639,88.588z M55.832,90.469H55.26v1.277h0.572c0.207,0,0.379-0.053,0.52-0.158
		c0.139-0.105,0.209-0.265,0.209-0.477c0-0.201-0.072-0.358-0.217-0.472C56.199,90.525,56.027,90.469,55.832,90.469z"/>
</g>
<g>
	<path fill-rule="evenodd" clip-rule="evenodd" fill="#27275D" d="M25.548,16.058v30.778c0,6.28,2.199,11.618,5.967,16.019
		c4.082,4.394,10.048,7.849,17.902,10.047c8.165-2.198,14.132-5.653,18.214-10.047c3.768-4.4,5.652-9.738,5.652-16.019V16.058
		H25.548z"/>
	<path fill-rule="evenodd" clip-rule="evenodd" fill="#FFFFFF" d="M72.342,46.836c0,12.247-7.852,20.727-22.613,24.812h-0.312
		c-14.761-4.085-22.613-12.564-22.613-24.812V17.314h45.538V46.836z"/>
	<path fill="#004388" d="M64.49,32.703c0.098,0,0.205,0.008,0.314,0.02v-0.02H64.49z"/>
	<path fill-rule="evenodd" clip-rule="evenodd" fill="#E11026" d="M33.4,21.397c0-0.628-0.63-0.942-0.944-0.942
		c0,0.314,0.314,0.314,0.314,0.942l0.315,0.315C33.4,21.712,33.4,21.397,33.4,21.397"/>
	<path fill-rule="evenodd" clip-rule="evenodd" fill="#E11026" d="M30.574,21.397l0.314,0.315c0.313,0,0.313-0.315,0.313-0.315
		c0-0.628-0.627-0.942-0.941-0.315C30.26,21.083,30.574,21.083,30.574,21.397"/>
	<path fill-rule="evenodd" clip-rule="evenodd" fill="#E11026" d="M30.574,24.224c0.314,0,0.314-0.315,0.314-0.315
		c0-0.313,0-0.313-0.314-0.313c-0.629,0-0.944,0.628,0,0.942C30.574,24.538,30.26,24.224,30.574,24.224"/>
	<path fill-rule="evenodd" clip-rule="evenodd" fill="#E11026" d="M33.085,27.992c0.315,0.315,0.315,0.628,0.315,0.942
		c0,0.314,0,0.314,0.314,0.314h0.312C34.027,28.62,33.401,27.992,33.085,27.992"/>
	<path fill-rule="evenodd" clip-rule="evenodd" fill="#E11026" d="M30.259,29.563c0.314-0.315,0.629-0.315,1.256,0h0.314v-0.629
		C31.515,28.62,30.573,28.935,30.259,29.563"/>
	<path fill-rule="evenodd" clip-rule="evenodd" fill="#E11026" d="M31.201,32.389c-0.627,0.314-0.313,1.256,0,1.256
		c0,0,0-0.628,0.314-0.942v-0.314C31.515,32.075,31.201,32.075,31.201,32.389"/>
	<path fill-rule="evenodd" clip-rule="evenodd" fill="#E11026" d="M51.928,32.703c0-0.314,0-0.314-0.314-0.314
		s-0.941,0.629-0.941,0.942c0.314,0,0.627-0.313,0.941-0.313S51.928,32.703,51.928,32.703"/>
	<path fill-rule="evenodd" clip-rule="evenodd" fill="#E11026" d="M52.244,35.216c0-0.314,0-0.314-0.314-0.629
		c0,0-0.316,0-0.316,0.315c-0.314,0.314,0,0.942,0.941,0.627C52.244,35.529,51.93,35.216,52.244,35.216"/>
	<path fill-rule="evenodd" clip-rule="evenodd" fill="#E11026" d="M62.92,33.959c0.314-0.314,0.629-0.629,1.256-0.629h0.314v-0.628
		C63.863,32.703,62.92,33.331,62.92,33.959"/>
	<path fill-rule="evenodd" clip-rule="evenodd" fill="#E11026" d="M65.434,35.216c0-0.314-0.314,0-0.314,0
		c-0.277,0.275,0.176,0.794,0.502,0.915c-0.176-0.079-0.137-0.338,0.125-0.602C65.746,35.216,65.746,35.216,65.434,35.216"/>
	<path fill-rule="evenodd" clip-rule="evenodd" fill="#E11026" d="M67.945,35.529c0,0,0-0.313-0.314-0.313c0,0-0.314,0-0.314,0.313
		c-0.316,0.315,0.314,0.943,0.943,0.629C68.26,35.844,67.945,35.844,67.945,35.529"/>
	<path fill-rule="evenodd" clip-rule="evenodd" fill="#E11026" d="M53.5,35.844c0-0.315,0-0.315-0.316-0.315
		c0,0-0.314,0-0.314,0.315c0,0.313,0.631,0.943,1.258,0.313C54.127,36.157,53.5,36.157,53.5,35.844"/>
	<path fill-rule="evenodd" clip-rule="evenodd" fill="#E11026" d="M41.879,25.794c-0.313,0.313-0.313,0.942,0,1.256
		c0.315,0,0.63-0.628,0.63-0.943C42.194,26.107,41.879,26.107,41.879,25.794"/>
	<path fill-rule="evenodd" clip-rule="evenodd" fill="#E11026" d="M49.729,54.061c-0.312,0-0.627,0-0.627,0.314
		s0.314,0.314,0.627,0.314c0,0,0.314,0,0.314-0.314S49.729,54.061,49.729,54.061"/>
	<path fill-rule="evenodd" clip-rule="evenodd" fill="#E11026" d="M50.986,53.431c0,0-0.314,0-0.628-0.314c0,0,0-0.315-0.314-0.315
		c-0.315,0-0.315-0.313-0.315-0.313c-0.312,0-0.312,0.313-0.626,0.313s-0.314,0.315-0.314,0.315
		c-0.314,0.314-0.627,0.314-0.627,0.314c0,0.315-0.314,0.315-0.63,0.315c0.315,0,0.315,0.314,0.315,0.628l0.314,0.315
		c0,0.31,0,0.624,0.312,0.938v0.314c0,0,0.314-0.314,0.314,0h0.94h0.63c0-0.314,0.313,0,0.313,0v-0.314
		c0.314-0.314,0.314-0.629,0.314-0.629c0-0.31,0.312-0.31,0.312-0.625c0-0.313,0-0.628,0.314-0.628
		C51.299,53.746,50.986,53.746,50.986,53.431 M50.672,54.689v0.31c0,0.314-0.313,0-0.628,0.314c0,0,0,0.314-0.315,0.314v-0.314
		c-0.312,0-0.312,0.314-0.312,0.314c-0.314,0-0.314-0.314-0.314-0.314c-0.314-0.314-0.314,0-0.629-0.314v-0.31v-0.629
		c0.314-0.314,0-0.314,0.314-0.63h0.314c0.314-0.314,0.314,0,0.626,0c0,0,0-0.314,0.315,0h0.314c0.313,0.315,0,0.315,0.313,0.63
		V54.689z"/>
	<path fill-rule="evenodd" clip-rule="evenodd" fill="#E11026" d="M61.664,54.061c-0.316,0-0.316,0-0.316,0.314s0,0.314,0.316,0.314
		c0,0,0.314,0,0.314-0.314S61.664,54.061,61.664,54.061"/>
	<path fill-rule="evenodd" clip-rule="evenodd" fill="#E11026" d="M62.607,53.116c-0.314,0-0.314-0.315-0.629-0.315
		s-0.314-0.313-0.314-0.313l-0.316,0.313c-0.312,0-0.625,0.315-0.625,0.315c-0.314,0.314-0.314,0.314-0.631,0.314
		c0,0.315-0.311,0.315-0.311,0.315s0.311,0.314,0,0.628l0.311,0.315c0,0.31,0,0.624,0.316,0.938v0.314c0,0,0.314-0.314,0.627,0
		h0.629h0.629c0.314-0.314,0.314,0,0.627,0c-0.312,0-0.312-0.314,0-0.314v-0.629c0-0.31,0.314-0.31,0.314-0.625
		c0-0.313,0-0.628,0.314-0.628c-0.314,0-0.314,0-0.629-0.315C62.92,53.431,62.607,53.431,62.607,53.116 M62.607,54.689v0.31
		c0,0.314-0.314,0-0.314,0.314c-0.314,0-0.314,0.314-0.629,0.314v-0.314l-0.316,0.314c-0.312,0-0.312-0.314-0.312-0.314
		c-0.312-0.314-0.312,0-0.627-0.314c0-0.31,0.314-0.31,0.314-0.31h-0.314c0-0.315,0-0.315,0.314-0.629c0-0.314-0.314-0.314,0-0.63
		h0.312c0.312-0.314,0.312,0,0.629,0c0,0,0.314-0.314,0.314,0h0.314c0.314,0.315,0.314,0.315,0.314,0.63
		C62.607,54.374,62.92,54.374,62.607,54.689"/>
	<path fill-rule="evenodd" clip-rule="evenodd" fill="#E11026" d="M37.797,54.061c-0.315,0-0.315,0-0.315,0.314s0,0.314,0.315,0.314
		c0.312,0,0.312,0,0.312-0.314S38.109,54.061,37.797,54.061"/>
	<path fill-rule="evenodd" clip-rule="evenodd" fill="#E11026" d="M38.738,53.116c-0.314,0-0.314-0.315-0.629-0.315
		c-0.312,0-0.312-0.313-0.312-0.313s0,0.313-0.315,0.313c-0.314,0-0.314,0.315-0.626,0.315c0,0.314-0.315,0.314-0.63,0.314
		c0,0.315-0.314,0.315-0.314,0.315s0.314,0.314,0.314,0.628c-0.314,0,0,0.315,0,0.315c0.315,0.31,0,0.624,0.315,0.938v0.314
		c0.315,0,0.315-0.314,0.627,0h0.629h0.627c0.314-0.314,0.314,0,0.629,0c-0.315,0-0.315-0.314,0-0.314c0.314-0.314,0-0.629,0-0.629
		c0-0.31,0.314-0.31,0.314-0.625c0-0.313,0-0.628,0.315-0.628c-0.315,0-0.315,0-0.629-0.315
		C39.053,53.431,38.738,53.431,38.738,53.116 M38.738,54.689v0.31c0,0.314-0.314,0-0.314,0.314c-0.315,0-0.315,0.314-0.627,0.314
		v-0.314c0,0,0,0.314-0.315,0.314c-0.314,0-0.314-0.314-0.314-0.314c-0.312-0.314-0.312,0-0.312-0.314c-0.315-0.31,0-0.31,0-0.31
		h-0.315c0-0.315,0.315-0.315,0.315-0.629v-0.63h0.312c0.314-0.314,0.314,0,0.629,0c0,0,0.312-0.314,0.627,0
		c0.314,0.315,0.314,0.315,0.314,0.63C38.738,54.374,39.053,54.374,38.738,54.689"/>
	<path fill-rule="evenodd" clip-rule="evenodd" fill="#E11026" d="M49.417,65.68c-0.314,0-0.314,0.314-0.314,0.314
		c0,0.311,0,0.625,0.314,0.625c0.312,0,0.312-0.314,0.312-0.625C49.729,65.994,49.729,65.68,49.417,65.68"/>
	<path fill-rule="evenodd" clip-rule="evenodd" fill="#E11026" d="M50.986,65.364c-0.312-0.312-0.628-0.312-0.628-0.312
		c-0.314-0.316-0.314-0.631-0.629-0.631c-0.312,0-0.312,0-0.312-0.313c0,0.313,0,0.313-0.314,0.313s-0.314,0.314-0.63,0.631
		c0,0-0.312,0-0.627,0.312h-0.313c0.313,0.315,0.313,0.315,0.313,0.63c0,0.311,0,0.311,0.315,0.625c0,0-0.315,0.314,0,0.629
		c0.312,0,0.312,0.314,0,0.629c0.312-0.314,0.312-0.314,0.627-0.314c0.314,0.314,0.314,0,0.629,0c0.312,0,0.312,0.314,0.627,0
		c0.314,0,0.314,0,0.63,0.314c0-0.314-0.315-0.629,0-0.629c0.312-0.314,0-0.629,0.312-0.629c0-0.314,0.312-0.314,0-0.625
		c0-0.314,0.312-0.314,0.312-0.63H50.986z M50.358,66.305v0.314c0,0.314-0.314,0.314-0.314,0.314c-0.314,0,0,0.314-0.314,0.314
		h-0.312c-0.314,0-0.314-0.314-0.629-0.314c0,0-0.315,0-0.315-0.314v-0.314h-0.312c0-0.311,0.312-0.311,0.312-0.625
		c0,0,0-0.315,0.315-0.315v-0.312h0.629h0.627v0.312h0.314v0.315c0,0.314,0.315,0.314,0.315,0.625H50.358z"/>
	<path fill-rule="evenodd" clip-rule="evenodd" fill="#E11026" d="M62.607,23.281c0.312,0,0.312-0.314,0.312-0.628
		c0,0,0-0.313-0.312-0.313c-0.314,0-0.629,0.313-0.629,0.313C61.979,22.967,62.293,23.281,62.607,23.281"/>
	<path fill-rule="evenodd" clip-rule="evenodd" fill="#E11026" d="M60.408,22.654c0,0.314,0.314,0.627,0.314,0.627
		c0,0.315,0,0.628,0.311,0.944c0.316,0,0,0.313,0,0.627c0.316-0.314,0.316-0.314,0.631-0.314c0.314,0.314,0.629,0,0.943,0
		c0.312,0,0.312,0.314,0.627,0c0.314,0,0.629,0,0.629,0.314c0-0.314,0-0.627,0.312-0.627c0.314-0.316,0-0.629,0-0.944
		c0.314,0,0.629-0.313,0.314-0.627c0-0.314,0.314-0.628,0.314-0.628s-0.314,0-0.629-0.313c0-0.315-0.312-0.315-0.627-0.315
		c0-0.315-0.314-0.628-0.629-0.628c-0.312,0-0.312-0.314-0.312-0.629c0,0.315-0.314,0.629-0.629,0.629s-0.314,0.313-0.629,0.628
		c0,0-0.316,0-0.627,0.315c0,0.313-0.314,0.313-0.629,0.313C60.408,22.025,60.723,22.34,60.408,22.654 M61.35,22.34
		c0,0,0-0.314,0.314-0.627c0.314,0,0,0,0.314-0.315h0.629h0.627v0.315h0.314c0.314,0.313,0,0.627,0.314,0.627
		c0,0.314,0.312,0.314,0,0.628v0.313c-0.314,0.628-0.314,0.315-0.629,0.628c0,0,0,0.316-0.627,0.316v-0.316
		c0,0.316-0.314,0.316-0.314,0.316c-0.314,0-0.314-0.316-0.629-0.316c0-0.313-0.314,0-0.314-0.628c0-0.313-0.316-0.313-0.316-0.313
		C61.033,22.654,61.35,22.654,61.35,22.34"/>
	<path fill-rule="evenodd" clip-rule="evenodd" fill="#E11026" d="M49.103,24.224c0,0.314,0.314,0.627,0.314,0.627
		c0.312,0,0.627-0.313,0.627-0.627c0,0-0.314-0.315-0.627-0.315L49.103,24.224z"/>
	<path fill-rule="evenodd" clip-rule="evenodd" fill="#E11026" d="M51.299,23.282c0-0.314-0.312-0.314-0.627-0.314
		c-0.313-0.314-0.313-0.628-0.628-0.628c-0.315,0-0.315-0.314-0.627-0.627c0,0.313,0,0.627-0.314,0.627s-0.314,0.314-0.629,0.628
		c-0.312,0-0.627,0-0.627,0.314c-0.315,0.314-0.315,0.314-0.629,0.314c0.313,0,0.313,0.313,0.313,0.629
		c0,0.314,0.315,0.627,0.315,0.627c0,0.315,0,0.63,0.314,0.943v0.628c0-0.315,0.312-0.315,0.627-0.315c0.314,0.315,0.629,0,0.629,0
		c0.312,0,0.627,0.315,0.941,0c0.313,0,0.628,0,0.628,0.315v-0.628c0.312-0.313,0.312-0.628,0.312-0.943
		c0,0,0.314-0.313,0.314-0.627c0-0.316,0-0.629,0.314-0.629C51.613,23.596,51.299,23.596,51.299,23.282 M50.672,24.852
		c0,0.63-0.313,0.315-0.313,0.63c-0.314,0-0.314,0.313-0.63,0.313l-0.312-0.313v0.313c-0.314,0-0.314-0.313-0.629-0.313
		c0-0.315-0.314,0-0.627-0.63h0.312c-0.312,0-0.312,0-0.312-0.313c0-0.314,0-0.314,0.312-0.63c0,0-0.312-0.313,0-0.627h0.314v-0.314
		h0.629h0.941v0.314h0.313c0.314,0.314,0,0.627,0,0.627c0,0.316,0.314,0.316,0.314,0.63C50.986,24.852,50.986,24.852,50.672,24.852"
		/>
	<path fill-rule="evenodd" clip-rule="evenodd" fill="#E11026" d="M49.417,38.67c0,0-0.314,0.315-0.314,0.628l0.314,0.314
		c0.312,0,0.627-0.314,0.627-0.314C50.044,38.985,49.729,38.67,49.417,38.67"/>
	<path fill-rule="evenodd" clip-rule="evenodd" fill="#E11026" d="M51.299,38.042c0-0.314-0.312-0.314-0.627-0.314
		c-0.313-0.313-0.313-0.628-0.628-0.628c-0.315,0-0.315-0.313-0.627-0.313c0,0,0,0.313-0.314,0.313s-0.314,0.315-0.629,0.628
		c-0.312,0-0.627,0-0.627,0.314c-0.315,0.314-0.315,0.314-0.629,0.314c0.313,0,0.313,0.315,0.313,0.629s0.315,0.628,0.315,0.628
		c0,0.315,0,0.627,0.314,0.941v0.628c0-0.313,0.312-0.313,0.627,0c0.314,0,0.629-0.313,0.629-0.313c0.312,0,0.627,0.313,0.941,0.313
		c0.313-0.313,0.628-0.313,0.628,0v-0.628c0.312-0.314,0.312-0.626,0.312-0.941c0,0,0.314-0.314,0.314-0.628s0-0.629,0.314-0.629
		C51.613,38.355,51.299,38.355,51.299,38.042 M50.672,39.612c0,0,0.314,0,0,0.315c0,0.312-0.313,0-0.313,0.312
		c-0.314,0-0.314,0.314-0.63,0.314h-0.312c-0.314,0.315-0.314-0.314-0.629-0.314c0-0.312-0.314,0-0.627-0.312
		c0-0.315,0.312-0.315,0.312-0.315c-0.312,0-0.312,0-0.312-0.314s0-0.314,0.312-0.628c0,0-0.312-0.315,0-0.629h0.314
		c0.314-0.314,0.629,0,0.629,0c0.312,0,0.627-0.314,0.941,0h0.313c0.314,0.314,0,0.629,0,0.629c0,0.314,0.314,0.314,0.314,0.628
		S50.986,39.612,50.672,39.612"/>
	<path fill-rule="evenodd" clip-rule="evenodd" fill="#E11026" d="M37.167,39.298c0-0.313-0.312-0.628-0.312-0.628
		c-0.314,0-0.629,0.315-0.629,0.628c0,0,0.315,0.314,0.629,0.314L37.167,39.298z"/>
	<path fill-rule="evenodd" clip-rule="evenodd" fill="#E11026" d="M36.855,40.869c0,0,0.312,0.313,0.626,0.313
		c0.316-0.313,0.627-0.313,0.627,0v-0.628c0.315-0.314,0.315-0.627,0.315-0.942c0,0,0.315-0.314,0.315-0.627
		c0-0.315,0-0.63,0.315-0.63c-0.315,0-0.315,0-0.63-0.313c0-0.314-0.315-0.314-0.626-0.314c-0.316-0.313-0.316-0.629-0.63-0.629
		c-0.312,0-0.312-0.313-0.312-0.313c-0.314,0-0.314,0.313-0.629,0.313s-0.315,0.316-0.629,0.629c-0.315,0-0.627,0-0.627,0.314
		c0,0.313-0.314,0.313-0.629,0.313c0.315,0,0.315,0.315,0.315,0.63c0,0.313,0.314,0.627,0.314,0.627c0,0.315,0,0.628,0.312,0.942
		v0.628c0-0.313,0.315-0.313,0.629,0C36.227,41.182,36.542,40.869,36.855,40.869 M35.598,39.927c-0.315-0.315,0-0.315,0-0.315
		s-0.315,0-0.315-0.314c0-0.313,0.315-0.313,0.315-0.628c0,0-0.315-0.315,0-0.628h0.314c0.315-0.314,0.63,0,0.944,0
		c0,0,0.312-0.314,0.626,0h0.316c0.311,0.313,0,0.628,0,0.628c0.311,0.315,0.311,0.315,0.311,0.628c0,0.314,0,0.314-0.311,0.314
		c0,0,0.311,0,0.311,0.315c-0.311,0.313-0.311,0-0.627,0.313c-0.314,0-0.314,0.314-0.626,0.314h-0.314
		c-0.315,0-0.315-0.314-0.63-0.314C35.912,39.927,35.598,40.24,35.598,39.927"/>
	<path fill-rule="evenodd" clip-rule="evenodd" fill="#E11026" d="M62.293,38.67c-0.314,0-0.314,0.315-0.314,0.628
		c0,0,0,0.314,0.314,0.314s0.627-0.314,0.627-0.314C62.92,38.985,62.607,38.67,62.293,38.67"/>
	<path fill-rule="evenodd" clip-rule="evenodd" fill="#E11026" d="M64.805,38.355c-0.314,0-0.629,0-0.629-0.314
		c-0.312-0.314-0.627-0.314-0.627-0.314c-0.314-0.313-0.314-0.628-0.629-0.628c-0.312,0-0.627-0.313-0.627-0.313
		s0,0.313-0.316,0.313c-0.312,0-0.627,0.315-0.627,0.628c-0.314,0-0.627,0-0.627,0.314c-0.314,0.314-0.631,0.314-0.631,0.314
		s0.316,0.315,0.316,0.629c-0.316,0.314,0,0.628,0.314,0.628c0,0.315-0.314,0.627,0,0.941c0.312,0.315,0.312,0.315,0.312,0.628
		c0-0.313,0.314-0.313,0.629,0c0.312,0,0.312-0.313,0.629-0.313c0.314,0,0.627,0.313,0.941,0.313c0.314-0.313,0.314-0.313,0.629,0
		c0-0.313-0.314-0.313,0-0.628c0.312-0.314,0.312-0.626,0.312-0.941c0,0,0.314-0.314,0.314-0.628
		C64.176,38.67,64.49,38.355,64.805,38.355 M63.549,39.612v0.315c0,0.312-0.314,0-0.314,0.312c-0.314,0-0.314,0.314-0.627,0.314
		h-0.314c-0.629,0-0.629-0.314-0.629-0.314c-0.314-0.312-0.314,0-0.629-0.312v-0.315v-0.314c-0.312-0.314,0-0.314,0-0.628
		c0.314,0,0-0.315,0.314-0.629h0.314c0.312-0.314,0.312,0,0.629,0c0.314,0,0.314-0.314,0.627,0h0.314
		c0.314,0.314,0.314,0.629,0.314,0.629c0,0.314,0.314,0.314,0.314,0.628S63.549,39.612,63.549,39.612"/>
	<path fill-rule="evenodd" clip-rule="evenodd" fill="#E11026" d="M36.856,23.281c0,0,0.312-0.314,0.312-0.628l-0.312-0.313
		c-0.315,0-0.63,0.313-0.63,0.313C36.226,22.967,36.541,23.281,36.856,23.281"/>
	<path fill-rule="evenodd" clip-rule="evenodd" fill="#E11026" d="M34.657,22.654c0,0.314,0.314,0.627,0.314,0.627
		c0,0.315,0,0.628,0.312,0.944c0.315,0,0,0.313,0,0.627c0.315-0.314,0.315-0.314,0.629-0.314c0.315,0.314,0.63,0,0.944,0
		c0,0,0.312,0.314,0.626,0c0.316,0,0.627,0,0.627,0.314c0-0.314,0-0.627,0.315-0.627v-0.944c0,0,0.315-0.313,0.315-0.627
		s0-0.628,0.315-0.628c-0.315,0-0.315,0-0.63-0.313c0-0.315-0.315-0.315-0.626-0.315c-0.316-0.315-0.316-0.628-0.63-0.628
		c-0.312,0-0.312-0.314-0.312-0.629c-0.314,0.315-0.314,0.629-0.629,0.629s-0.315,0.313-0.629,0.628c0,0-0.627,0-0.627,0.315
		c0,0.313-0.314,0.313-0.629,0.313C34.657,22.025,34.657,22.34,34.657,22.654 M35.598,22.34c0,0,0-0.314,0.314-0.627l0.315-0.315
		h0.629h0.626v0.315h0.316c0.311,0.313,0,0.627,0,0.627c0.311,0.314,0.311,0.314,0.311,0.628l-0.311,0.313h0.311
		c-0.311,0.628-0.311,0.315-0.627,0.628c-0.314,0-0.314,0.316-0.626,0.316v-0.316l-0.314,0.316c-0.315,0-0.315-0.316-0.63-0.316
		c0-0.313-0.314,0-0.314-0.628c0-0.313-0.315-0.313-0.315-0.313C35.283,22.654,35.598,22.654,35.598,22.34"/>
	<path fill-rule="evenodd" clip-rule="evenodd" fill="#25295B" d="M30.888,39.298h0.313c0.314,0.314,0.314,0.314,0.314,0.629
		l-0.314,0.313c0,0.629,0.943-0.313,0.943,0v0.314c-0.315,0-0.315,0.315-0.315,0.628c0.315,0.629,0.942,0.629,0.942,0.629
		c0,0.628-1.256,0.628-1.57,0c0,0.942,0.628,1.255,0.943,1.255v0.314h-0.315c0.315,0.315,0.942,0.315,1.571,0.315
		c0.315,0,0.627-0.315,0.941,0c0.63,0.314,0.315,0.943,0.315,0.943c0.315,0.313,0.315-0.316,0.626-0.316v0.316
		c0,1.255-0.626,1.255-0.626,1.255c0,0.313,0.315,0.313,0.315,0.313h0.311c-0.311,0.943,0.316,1.257,0.316,1.257
		c0-0.314,0.628-0.942,0.943-0.942s0.315,0,0.627,0.314c0-0.314,0-0.314,0.314-0.629h0.315v-0.627
		c-0.941-0.941-0.629-1.57-0.315-2.199v-0.314c-0.626-0.313-1.256-0.313-1.256-0.313c-0.314-0.314-1.255-1.256-1.57-1.256
		c-0.629-0.315-1.256-0.943-1.256-1.57c0-0.942,0.627-1.257,0.315-1.885H33.4h-0.629v-0.315h-0.315c0,0.315,0.315,0.628,0.315,0.943
		h0.315v0.315l-0.315,0.313c-0.627-0.628-0.315-1.571-0.627-1.884c0,0.313-0.315,0.628-0.629,0.628c0,0-0.314,0-0.314-0.315h-0.313
		c0,0.628,0,0.943,0.941,0.943c0,0,0.315,0,0.315,0.315h-0.315C30.888,38.67,30.888,38.985,30.888,39.298"/>
	<path fill-rule="evenodd" clip-rule="evenodd" fill="#25295B" d="M68.887,46.521c-0.627,0.628-1.256,0.315-0.941-0.628
		c0-0.314,0-0.314-0.314-0.314c0,0-0.314,0-0.314-0.314c0,0,0.314-0.314,0.629,0c0.627-1.256-0.629-0.627-0.629-1.256
		c-1.256,0-2.826,2.197-5.023,1.256c-0.314,0-0.314-0.314,0-0.314c4.082,0,6.279-2.512,6.279-3.454c0-0.315-0.627-0.628-0.627-0.628
		c0-0.315,0.314-0.315,0.627,0c0-0.315-0.312-0.629-0.941-0.629v-0.313c0,0,0-0.629,0.314-0.629s0.314,0.629,0.314,0.629
		s0.627,0,0.627-0.315c0-0.627-0.314-0.627-0.941-0.627c-0.629,0-1.256,0.627-1.256,1.255c-0.314-0.313-0.314-0.942,0-0.942
		c-0.314,0-0.629,0-1.256,1.256c-0.314,0.628-2.826,1.57-5.967,1.57c-0.629,0-0.943,0-0.629-0.942c-0.314,0-1.256,0.629-0.314,1.257
		h-0.941c-0.627-0.315-0.941-0.628-0.941-0.942c0-0.315,0.627-0.628,0.627,0c0.314,0,0.629-0.943-0.627-0.943
		c-0.629,0-1.26,0.315-0.943,0.943c0,0.314,0,0.627-0.629,0.314c-0.312,0-0.627-0.629,0-0.942c-0.627-0.315-0.939,0.313-0.939,0.313
		c-0.314,0.315-0.629,0-0.629-0.628c0-0.314,0.941-1.884,2.197-1.884c0.627,0,0.627,0.628,0,0.628c0,0.314,0.627,0.629,0.943-0.313
		h1.256c0.627,0,0.627,0.942,0,0.942c-0.314,0-0.629-0.315-0.629-0.629c-0.627,0.314-0.627,1.256,0.941,1.256
		c0.314,0,1.258-0.314,0.629-1.569c0-0.315,0-0.63,0.629-0.63c0-0.313,0.941-0.627,0.941-1.569c0-0.315-0.314-0.629-0.941-0.629
		c0,0-0.629,0.314-0.629,0.629c0.314-0.315,0.941,0,0.941,0c0,0.313,0,0.942-1.883,0.942c-4.396,0-5.027,1.57-5.342,3.141
		c0,0.628-1.256,1.255-2.825,0.942c0.314,0.313,0.942,0.942,2.515,0.628c0.311,0,0.311-0.315,0.625,0
		c1.26,0.314,3.143,0.941,5.654,0.941c4.711,0,7.221-2.198,8.166-2.198c0.627,0,0.941,0.315,0.941,0.629
		c0,0.628-1.57,1.569-2.826,2.198c-8.48,1.884-12.877-2.512-19.157,0.629c-0.312,0.313-0.627,0.627-0.942,0.627v0.314
		c-0.313,1.257-1.569,1.884-1.885,2.199v-0.629c0,0-0.626,0.629-1.257,0.943c0-0.314,0-0.314,0.315-0.629
		c0,0-0.942,0.945-1.885,0.945c0.315,0,0.315-0.315,0.315-0.315s-0.942,0.63-2.2,0.63c-1.253,0-2.827-0.944-3.453-1.259
		c-0.315-0.314-0.629-0.314-0.629-0.627c0-0.63,0.629-1.571,0.314-1.885c0,0.314-0.314,0.628-0.626,0.628
		c-0.315,0-0.315,0-0.315-0.314h-0.314c-0.315,0-0.315,0.628,0,0.941c0.314,0,0.314,0.315,0,0.315
		c-0.315,0.315-0.315-0.942-0.942-0.942v0.314c0,0.313-0.315,0.628-0.629,0.628L31.2,46.206c-0.312,0.63,0,0.943,0.629,0.943
		c0,0,0-0.313,0.315,0v0.314c-0.629-0.314-0.944-0.314-1.256,0c0,0,0,0.315,0.312,0.315v-0.315l0.315,0.315
		c0.314,0,0.314,0.314,0.314,0.314c0,0.315,0,0.315-0.314,0.315v0.314c0.629,0,0.629-0.63,0.941-0.63
		c0,0.315-0.312,0.939,0.315,1.254c0.315,0.313,0.944,0,0.944,0c0.312,0,0.312-0.314,0.312-0.314l0.314,0.314
		c0.315,0.313,0,0.313,0,0.313h-0.626c0,0.315,0.312,0.315,0.312,0.63c-0.312,0.314-0.941,0.314-1.571,0
		c0.315,0.943,1.885,0.943,2.514,0.314h0.312l-0.312,0.314c0.627,0.314,1.886-0.943,2.512-0.943c0.315,0,0.627,0.314,0,0.314
		c0.627,0.314,0.942,0,1.256,0c0,0,0,0.314-0.314,0.314h0.629c0,0.314,0,0.314,0.314,0.314c0-0.314,0.315-0.314,0.315-0.314
		c0.312,0-0.629,1.568,0.627,1.883c-0.315-0.314,0-0.939,0.314-1.254c0.627-0.314,0.94-0.314,1.256-1.258V49.66
		c0.63,0.315,1.257,0.315,1.257,0c-0.315,0-0.315-0.938,0.625-0.938c0.944,0,0.631,1.253,0,1.253
		c0.631,0.629,0.944-0.315,1.574-0.315c0,0,0.312,0.315,0,0.63c0.312,0,0.312,0,0.626-0.314h0.315c0.627,0.314,1.256,0.629,1.885,0
		c-0.314,0-0.943,0-1.258-0.315l0.314-0.313c3.141-0.314,4.71-2.197,6.597-2.51c0,0-0.314,0.313-0.314,0.627h0.314
		c0,0.315-0.314,0.629,0.314,0.629c0,0,0-0.314,0.312-0.314c0.314,0,0,0.314,0.314,0.314h0.312c0.312,0.315,0.629,0.63,0.943,0.63
		c-2.512,0.31-1.256-0.63-2.512-0.63h-0.314c0.314,0.315,0.314,0.315,0.314,0.63c0,0.31-0.314,0.31-0.631,0.31
		c0,0.314,0,0.314,0.316,0.314c0,0.313-0.631,0.313-0.316,0.943c0-0.314,0.316-0.314,0.316-0.314c0.314,0,0.314,0,0.314,0.314
		c0.314,0,0.314,0,0.314,0.314h0.314V50.29h0.312h0.627v0.629c0.312,0,0.312-0.314,0.312-0.629c0.316,0,0.316,0,0.631-0.314v0.314
		c0,0.314,0.312,0.314,0.629,0.314c1.256,0,0.627-0.944,1.256-0.944c0.312,0,0.312,0.315,0,0.63c1.256,0.314,1.256-0.63,1.57-1.258
		c0,0,0.312,0.314,0.627,0.314c-0.314,0-0.314-1.254,0.939-0.938c-0.625-0.945-1.566-0.315-1.881-0.315
		c-0.629,0-0.943,0-0.943-0.314c0-0.315,0-0.629-0.627-0.942c-0.314-0.315-0.941-0.63-2.201-0.63l0.316-0.313
		c1.57,0,1.57,0.628,3.455,1.256c0.627,0.629,1.881,0.314,2.197,0.629c0.312,0,0.629,0.63,0.312,1.254c0,0,0.631,0,0.631-1.254
		c0-0.315,0-0.315,0.314,0c0,0,0,0.314-0.314,0.63c0.314,0,0.627,0,0.941-0.63c0,0,0.314,0,0.629-0.315
		c0.312-0.314,1.57-0.942,1.881-0.942c0.316,0,0.316,0.942,0.316,1.257c0,0.314,0,0.314-0.316,0.314
		c-0.625,0-0.939-0.314-1.254-0.314s-0.627,0-0.941,0.314v0.315l0.314-0.315c0.312,0,0.312,0.315,0.627,0.315v0.314
		c0,0.31-0.314,0.624-0.627,0.624c0,0.313,0.312,0.313,0.941,0c0.314-0.314,0.314-0.314,0.629-0.314c0,0,0,0.314-0.314,0.314
		c-0.314,0.313-0.943,0.629-0.629,1.258c0.314-0.314,0.314-0.314,0.629-0.314l0.314,0.314v0.314h0.311c0.316,0,0-0.314,0.316-0.314
		c0-0.629,0-0.629,0.314-0.944v0.315c0.314,0.314-0.314,0.629-0.314,0.943h0.314c0-0.314,0.314-0.314,0.314-0.314
		c0.312,0,0.312,0,0.627,0.314h0.314c0-0.314,0-0.629-0.314-0.943c-0.314-0.315-0.314-0.315,0-0.315
		c0.314-0.313,0.943,0,0.943-0.628c0-0.31,0-0.624-0.629-0.624c0.314,0,0.629-0.315,0.629-0.315c0-0.314-0.314,0-0.314-0.314
		C67.945,47.149,69.201,47.463,68.887,46.521"/>
	<path fill-rule="evenodd" clip-rule="evenodd" fill="#25295B" d="M38.109,45.265c-0.312-0.314,0-0.942,0.629-0.942
		c-0.314,0.628-0.941,1.257-0.314,1.884c0,0,0.314-0.314,0.314,0.314c0,0,0,0.628-0.314,0.628c-0.315,0-0.627-0.313-0.627-0.628
		c-0.315,0-0.315,0.628,0,0.942c-0.315,0-0.629,0-0.629-0.314c-0.312,0-0.626,1.259,0.941,1.259c1.886,0,2.2-1.887,2.2-2.829
		c0-0.315,0.313-0.315,0.313,0v2.2c0.628-0.316,0.943-1.258,0.943-2.515v-0.314c0.313,0.629,0.629,1.57,0.313,2.198
		c0.94-0.313,0.94-0.942,1.257-1.884v1.571c0.626-0.315,0.941-0.629,0.941-1.571c0,0,0-0.314,0.313-0.314
		c0.944-0.313,1.257-0.942,0.944-1.571c0,0-0.944,0.629-1.258-0.313c0-0.313,0.313-0.313,0.313-0.313s0.315,0,0.315,0.313
		c0.629,0,0.313-0.943,0.629-1.255c0,0,1.568,0,0.941-3.142c0,0.315-0.315,0.943-0.315,0.943c-0.313,0,0.315-0.943,0-1.258
		l-0.313,0.315c-0.312-0.315,0.313-0.942-0.312-1.255v0.313c-0.315,0,0-0.628-0.944-0.628c0.315,0.628,0,0.628-0.313,0.628
		c-0.627,0-0.627-0.313-0.315-0.628c-0.942,0-1.567,0.628-1.567,0.628c-0.315,0.314-0.629,0-0.629-0.628
		c-0.63,0.942-1.257,0.942-1.571,1.885c0,0.313,0.627,0.628,0.314,0.942c0,0-0.627-0.314-0.314-0.629
		c-0.627,0.629-0.313,0.942-0.313,0.942c0,0.314-0.314,0.942-0.314,1.884c0.314-0.312,0.314-0.312,0.627-0.312
		c-0.313,0.312-0.627,0.627-0.942,0.627s-0.629,0-0.315-0.627c-0.314-0.315-1.256,0-0.941,0.627c0,0.628,0.312,0.628,0.312,0.941
		C38.109,43.38,37.168,44.323,38.109,45.265 M43.762,40.24l0.315,0.314v-0.627c0.313,0,0.313,0,0.629,0.313
		c0,0-0.315,0.314-0.629,0.314c0,0.315-0.315,0.315-0.627,0C43.45,40.24,43.762,40.24,43.762,40.24 M41.565,38.985h0.629
		c0,0.313-0.315,0.313,0,0.628h0.314c0,0,0,0.314-0.314,0.314c-0.315,0-0.315-0.314-0.629-0.314V38.985z M40.936,40.869v0.313
		c0,0.315,0,0.315,0.943,0.63l0.315-0.315c-0.315-0.315-0.315-0.628-0.315-0.943h0.315v0.315c0,0,0,0.313,0.314,0.313h0.311
		l0.316-0.313c0.314,0,0,0.313,0,0.313c0,0.315-0.316,0.63-0.627,0.315l-0.314,0.627c0.941,0.315,1.256,0.315,1.256,0h0.312v0.315
		c-0.312,0.315-0.626,0.315-1.253,0.315c0,0.313,0,0.626-0.63,0.626c0,0-0.313,0.315-0.629,0.315
		c-0.314-0.315-0.314-0.628-0.314-0.941c0-0.315,0-0.315,0.314-0.63c-0.628-0.312-0.628-0.627-0.628-0.942
		C40.622,40.869,40.622,40.869,40.936,40.869"/>
	<path fill-rule="evenodd" clip-rule="evenodd" fill="#E11026" d="M33.715,37.728c0-0.628-0.314-1.256-0.944-1.256
		c0.315,0.315,0.315,0.628,0.315,0.943c-0.315,0.313,0,0.313,0,0.313C33.401,38.042,33.401,37.728,33.715,37.728"/>
	<path fill-rule="evenodd" clip-rule="evenodd" fill="#E11026" d="M30.888,36.786c0,0.313,0.313,0.313,0.313,0.628
		c0,0,0,0.313,0.314,0.313c0,0,0.314,0,0.314-0.313C31.829,37.099,31.201,36.471,30.888,36.786"/>
	<path fill-rule="evenodd" clip-rule="evenodd" fill="#E11026" d="M33.085,44.009c0,0.313,0.315,0.313,0.315,0.942
		c0,0,0,0.314,0.314,0.314c0,0,0.312,0,0.312-0.314C34.027,44.638,33.401,44.009,33.085,44.009"/>
	<path fill-rule="evenodd" clip-rule="evenodd" fill="#E11026" d="M30.574,45.58c0,0,0.314,0,0.627,0.314
		c0,0.313,0.314,0.313,0.629,0.313V45.58C31.515,45.265,30.574,45.265,30.574,45.58"/>
	<path fill-rule="evenodd" clip-rule="evenodd" fill="#E11026" d="M30.888,49.66c0-0.313,0-0.938,0.313-1.253
		c0.314,0,0.314-0.314,0.314-0.314c-0.314-0.314-0.314-0.314-0.627-0.314C30.574,48.093,30.259,49.031,30.888,49.66"/>
	<path fill-rule="evenodd" clip-rule="evenodd" fill="#E11026" d="M53.186,50.29c0,0-0.316,0-0.316,0.314
		c0,0.315,0.631,0.943,0.945,0.943c0,0-0.314-0.313-0.314-0.943C53.5,50.604,53.5,50.29,53.186,50.29"/>
	<path fill-rule="evenodd" clip-rule="evenodd" fill="#E11026" d="M53.186,48.722v-0.313c-0.631-0.315-1.258,0-1.572,0.313
		c0.314,0,0.631-0.313,0.941,0C52.869,49.032,53.186,49.032,53.186,48.722"/>
	<path fill-rule="evenodd" clip-rule="evenodd" fill="#E11026" d="M54.756,50.92v-0.315h-0.316
		c-0.311,0.315,0.316,0.944,0.629,0.629C55.068,51.233,54.756,51.233,54.756,50.92"/>
	<path fill-rule="evenodd" clip-rule="evenodd" fill="#E11026" d="M63.863,48.408c-0.314,0-0.943,0.623-0.943,0.938
		c0,0,0.314-0.315,0.943-0.315c0.312,0,0.312,0,0.312-0.31C64.176,48.722,64.176,48.408,63.863,48.408"/>
	<path fill-rule="evenodd" clip-rule="evenodd" fill="#E11026" d="M65.119,50.604c-0.316,0-0.316,0-0.316,0.315
		c-0.312,0.313,0,0.938,0.943,1.254c0-0.316-0.627-0.625-0.627-1.254C65.436,50.92,65.119,50.604,65.119,50.604"/>
	<path fill-rule="evenodd" clip-rule="evenodd" fill="#E11026" d="M67.316,51.233l-0.314-0.313c-0.312,0-0.312,0-0.312,0.313
		c-0.314,0.624,0.627,1.253,0.941,0.624C67.631,51.857,67.002,51.857,67.316,51.233"/>
	<path fill-rule="evenodd" clip-rule="evenodd" fill="#E11026" d="M30.888,40.24c0.313,0,0.313-0.313,0.313-0.313
		c0-0.314-0.313-0.314-0.313-0.314c-0.629,0-0.943,0.627-0.314,1.256C30.574,40.554,30.574,40.24,30.888,40.24"/>
	<path fill-rule="evenodd" clip-rule="evenodd" fill="#E11026" d="M41.25,43.38c0.629,0,0.944-0.627,0.944-0.941
		c-0.315,0-0.631-0.315-0.631-0.315C41.25,42.439,41.25,43.067,41.25,43.38"/>
	<path fill-rule="evenodd" clip-rule="evenodd" fill="#25295B" d="M38.109,60.027c0.315-0.63,0.944-0.63,1.573-0.63
		c-0.315-0.314-0.315-0.943,0-1.257h-0.315h-1.258c-0.627,0-1.253-0.625-1.568-0.625c-1.258-0.943-0.629-2.826-1.258-3.142h-0.312
		c0,0,0,0.315-0.315,0.315c-0.314,0-0.314,0-0.314-0.315h-0.315v0.625h-0.312c0,0,0-0.625-0.314-0.625
		c0,0.315-0.315,0.625-0.63,0.625h-0.314c0,0.314,0.314,0.63,0.944,0.63c-0.315,0.313-0.63,0.313-0.315,0.943
		c0-0.314,0.315-0.314,0.315-0.314c0.314,0,0.314,0,0.626,0.314c0.315,0,0.315,0,0.629,0.314c-0.629,0.629-0.314,0.938-0.314,0.938
		c0.314,0.315,0.941,0.315,1.256,0.315v0.313c0,0.315-0.315,0.315-0.627,0.315c0,0.313,0.627,0.628,0.941,0.943
		c0,0-0.314,0.63,0.629,0.939c-0.315-0.31-0.315-0.939,0-0.939c0,0.314,0.315,0.63,0.315,0.63c0-0.945,0.941-0.945,0.941-0.63
		C37.797,60.027,38.109,60.027,38.109,60.027"/>
	<path fill-rule="evenodd" clip-rule="evenodd" fill="#25295B" d="M67.002,55.942c0-0.314-0.312-0.942-0.941-0.629l0.314,0.314
		c0,0.63-1.256,0.314-2.199,0.63c0-0.315,0-0.315,0.314-0.315c-0.314-0.314-0.941,0-1.256,0.629H62.92h-3.768
		c-1.256,0-0.943-0.943,0-0.943c-0.629-0.628-1.885-0.314-1.57,0.943c-0.314,0-0.314-0.313-0.314-0.629
		c-0.312,0-0.312,0.315-0.627,0.629c-1.26,0-3.455-0.629-3.455-1.258c0-1.254,2.826-1.567,2.826-0.624
		c0,0.311-0.316,0.624-1.256,0.311c0.312,0.942,2.199,0.628,2.199-0.311c0-0.63,0.312-0.943,0.941-0.943
		c0.312,0,0.627,0.943-0.314,0.943c0.314,0.624,1.256,0.624,1.256-0.63c0,0,0-0.313,0.314-0.313s0.941-0.63,0.941-1.26
		c0-0.313,0-0.629-0.627-0.629c-0.629-0.309-1.258,0.315-0.943,0.944c0-0.315,0.314-0.629,0.943-0.629
		c0.312,0,0.312,0.943-0.943,0.943c-2.512,0.314-6.279,0-6.279,2.197c0,1.573,3.451,1.887,5.338,1.887
		c1.57,0,5.967-0.629,5.967,0.625c0,0.314-0.314,0.944-1.57,0.63c-6.598-1.568-11.307-1.255-14.132-0.315
		c-0.314,0.315-0.629,0.63-0.944,0.63c0,0.313-0.312,0.313-0.312,0.313c0,0.63-0.314,1.26-0.943,1.26
		c-0.312,0.309-0.312,0.309-0.627,0.624c-0.315,0.313-0.629,0.313-0.944,0.313c-0.315,0.315-0.94,0.315-0.626,0.315v0.629
		c-0.941-0.629-1.57-0.314-1.57-0.314c-0.943,0-1.257-0.314-1.257-0.63c0-0.629-0.314-1.253-0.629-1.253v0.315
		c0,0.309,0,0.309-0.312,0.309h-0.315c-0.314-0.309-0.314,0-0.314,0c-0.315-0.309-0.315-0.309-0.629-0.309v0.309h0.314
		c0,0.315-0.314,0.629-0.629,0.629h-0.312c0.312,0.315,0.312,0.315,0.941,0c0.315,0,0.315,0,0.315,0.315
		c-0.315,0-0.629,0-0.629,0.314h0.314c0,0,0.315,0,0.315,0.314v0.314v0.314c0.314,0,0.629-0.629,0.941-0.629l0.315,0.314
		c0,0.314,0,0.629,0.314,0.938c0.627,0.315,0.94-0.624,1.257-0.624c0.314,0,0,0.939-0.63,0.939c0,0,0.313,0.314,0.944,0.314
		c-0.314,0.314-0.944,0.314-1.258,0c-0.313,0.628,0.627,0.943,1.572,0.628l0.312,0.315l-0.312,0.313c0,0.315,0.627,0.315,0.941,0
		c0.311-0.313,0.311-0.313,0.311,0c0,0,0.315,0.315,0.631,0.315c-0.315-0.315-0.315-0.944,0-1.258c0,0,0.313,0,0.313,0.313
		c0,0.315,0,1.885,2.197,1.569c-0.312-0.312-0.626-0.312-0.941-0.625h0.941c-0.312-0.315-0.626-0.629-0.626-0.944l0.314-0.628
		c0,0,0.312,0.314,0,0.628c0.312,0,0.627-0.313,0.627-0.942v-0.939c0-0.314,0-0.314,0.314-0.314s0.629,0,0.941,0.314
		c0.314,0,0.314-0.314,0-0.629h0.314c0.314,0,1.256,0,1.256,0.943c0.314-0.314,0.314-0.943,0-1.258c0.314,0,0.314,0,0.314,0.314
		c0.313-0.314,0.313-0.629,0-0.944c-0.314-0.313,0.628-0.313,0.94-0.629c0.314,0,0.314,0,0.314,0.315
		c-0.314,0.313-0.314,0.629,0,0.629c0.314,0.314,0.314,0.943,0.631,0.943c0-0.314,0-0.629,0.311-0.629
		c0,0.629,0.631,1.258,1.574,0.629c-0.314,0-0.943,0-0.943-0.314s0.314-0.314,0.629-0.314s0.627,0.314,0.627,0.629l-0.312,0.314
		c0,0.314-0.629,0.624-0.629,0.314c-0.314-0.314-0.629-0.314-0.629-0.314v0.314c0,0.31-0.316,0.625-0.627,0.625l-0.316-0.315
		c-0.314,0.63,0.316,0.944,1.258,0.63c0,0.628-0.941,0-1.258,0.628c0,0.315,0,0.315,0.316,0.315c0-0.315,0-0.315,0.311-0.315
		c0,0,0.316,0,0.316,0.315v0.313c0,0.315,0,0.315,0.314,0.315c0,0,0-0.315,0.314-0.629h0.314c0,0.313,0,0.313,0.314,0.313v-0.313
		c0.312-0.315,0.312-0.315,0.627-0.315c0.312,0,0,0,0-0.313h0.312c0.312,0,0.627,0,0.627-0.629c0-0.315-0.314-0.939-0.314-1.254
		c0-0.943,1.26-1.572,1.574-1.572c0-0.624-1.574,0.313-1.574-0.315v-0.624c0-0.314-0.939-0.63-2.51,0v-0.314
		c1.885-1.258,4.396,0.314,4.711,1.254h0.627c0.629,0,0.943-0.315,1.57,0c0,0.313-0.312,0.313-0.941,0.629
		c-1.256,0.314-1.57-0.629-2.197,0l0.314,0.314v0.314v0.314c0.312,0,0.312-0.314,0.627,0s-0.627,0.314-0.627,0.629h0.312h0.314
		c0.314,0.31,0.314,0.31,0.314,0.625c0.627,0,0-1.254,0.941-1.254v-0.314c0.314,0,0.314,0.314,0.629,0.314v0.314v0.314
		c0.627,0.31,0.627-0.314,0.627-0.629c0.939,0,1.256-0.314,1.256-1.259c0,0,0.314,0.315,0.314,0.63c0.314,0,0.314-0.63,0.629-1.259
		c0.314,0,0.314,0.315,0,0.629c0.627-0.313,0.627-0.629,0.627-0.938c0-0.315-0.312,0-0.312-0.315c0-0.314,0.312-0.314,0.627-0.314
		c-0.314-0.63-1.57,0.314-2.201,0.314c-0.625,0-1.881-0.944-1.881-1.258c0-0.314,2.197,0.313,3.768,0.313
		c1.256,0,1.57-0.628,1.57-0.628c0.314-0.63,0-0.63,0-0.939c0,0,0.314-0.315,0.943,0c0,0,0-0.315-0.629-0.315v-0.313
		C64.805,56.258,66.689,56.887,67.002,55.942"/>
	<path fill-rule="evenodd" clip-rule="evenodd" fill="#25295B" d="M39.994,57.517c-0.313,0.938-0.313,2.196,1.257,3.136
		c-0.315-0.311-0.315-0.939-0.315-1.569c0,0,0.315-0.312,0.315,0c0,0.944,0.627,1.569,0.627,1.883c0,0-0.313,0.314-0.627,0
		c-0.315,0-0.315,0.63,0.627,0.63c0.315,0,0.942-0.315,0.942-1.254c0-0.314,0.315-0.629,0.315-0.314
		c0.313,0.314,0,1.253-0.315,1.568c0.629-0.315,1.256-0.63,1.256-2.197c0-0.315,0-0.315,0.315-0.315
		c0,0.315,0.314,0.944-0.315,1.883c0.63,0,0.944-0.313,1.259-1.883c0-0.312,0.312-0.312,0.312,0v0.944
		c0.314-0.314,0.628-0.629,0.628-1.257c0.627-0.316,1.256-0.631,1.256-1.254c0-0.315,0-0.63-0.629-0.944
		c0.315,0.314,0.315,0.944-0.312,1.253c-0.315,0-0.315-0.309-0.315-0.309c0-0.315,0.315-0.315,0.315-0.315v-0.629
		c0.312-0.315,0.312-0.944,0.312-0.944c-0.312,0.315-0.312,0-0.627-0.314c1.256-0.314,1.256-1.253,0.627-2.512
		c0,0.314,0,0.629-0.312,0.314c-0.315,0-0.315-0.943-0.943-1.258c0.314,0.629,0,0.943-0.627,0.943c-0.314,0-0.314-0.629,0-0.629
		c-0.314,0-0.629,0.314-0.944,0.314c0,0,0-0.314,0.315-0.314c-0.942-0.314-0.942,0.314-1.256,0.629c-0.315-0.314,0-0.629,0-0.629
		c-1.885,0-0.627,2.517-1.571,2.517c-0.313,0.31-0.313-0.314-0.313-0.314c-0.942,0,0,0.938,0,1.882c0,0-0.315,0.63-0.627,0.63
		c-0.315,0-0.63-0.63-0.315-1.259C39.681,55.628,39.053,56.887,39.994,57.517 M45.021,54.689c0,0.31,0.314,0.31,0.314,0.31v-0.31
		c0.312-0.314,0.312-0.314,0.627,0c-0.314,0-0.314,0.31-0.627,0.31c0,0.314-0.314,0.314-0.314,0
		C44.706,54.999,45.021,54.689,45.021,54.689 M42.509,55.628c0,0,0,0.315,0.94,0.629l0.312-0.629c-0.312,0-0.312-0.314-0.312-0.629
		c0,0,0-0.31,0.312-0.31c-0.312,0-0.625-0.314-0.625-0.314v-0.629h0.625c-0.312,0.314-0.312,0.314-0.312,0.629
		c0,0,0.312,0,0.312-0.314v0.629v0.31c0,0.314,0,0.314,0.315,0.629h0.315l0.314-0.314v0.314c0,0.315-0.314,0.315-0.63,0.315
		l-0.315,0.629c0.945,0.314,1.26,0.314,1.26,0h0.314v0.314c-0.314,0-0.629,0.314-1.259,0v0.314c0,0.315-0.315,0.315-0.627,0.315
		c0,0.309-0.313,0.309-0.629,0.309c-0.312,0-0.312-0.309-0.312-0.624c-0.315-0.314,0-0.629,0-0.629l0.312-0.315
		c-0.627-0.313-0.627-0.629-0.627-0.943C42.509,55.313,42.509,55.313,42.509,55.628"/>
	<path fill-rule="evenodd" clip-rule="evenodd" fill="#E11026" d="M32.144,54.375h0.312c0,0.314,0.314,0.314,0.314,0.314
		c0.315,0,0.315,0,0.315-0.314C33.085,54.06,32.456,53.746,32.144,54.375"/>
	<path fill-rule="evenodd" clip-rule="evenodd" fill="#E11026" d="M33.4,56.572c-0.63,0.314-0.315,0.943,0.314,0.943
		c0,0-0.314-0.314,0-0.314c0-0.314,0.312-0.314,0-0.629H33.4z"/>
	<path fill-rule="evenodd" clip-rule="evenodd" fill="#E11026" d="M34.027,53.116c0,0.314,0.314,0.314,0.314,0.944
		c0,0,0,0.313,0.315,0.313c0,0,0.315,0,0.315-0.313C34.971,53.431,34.341,53.116,34.027,53.116"/>
	<path fill-rule="evenodd" clip-rule="evenodd" fill="#E11026" d="M38.738,60.027c0.315,0,0.315,0,0.629,0.315
		c0,0,0,0.31,0.315,0.31c0,0,0.312-0.31,0.312-0.625C39.682,59.713,39.053,59.713,38.738,60.027"/>
	<path fill-rule="evenodd" clip-rule="evenodd" fill="#E11026" d="M38.109,60.652c0-0.311-0.941-0.311-0.941,0.313
		c0.314,0,0.314-0.313,0.629,0h0.312C38.424,60.966,38.424,60.652,38.109,60.652"/>
	<path fill-rule="evenodd" clip-rule="evenodd" fill="#E11026" d="M55.07,65.051h-0.629v0.314c0.314,0.629,0.939,0.314,1.256-0.314
		C55.381,65.051,55.07,65.365,55.07,65.051"/>
	<path fill-rule="evenodd" clip-rule="evenodd" fill="#E11026" d="M52.555,62.854c-0.311-0.314-0.941-0.314-1.256,0.314h0.629
		c0.316,0.31,0.316,0.31,0.627,0.31V62.854z"/>
	<path fill-rule="evenodd" clip-rule="evenodd" fill="#E11026" d="M52.555,65.68c0.314-0.314,0.314-0.629,0-0.629h-0.311
		c-0.316,0.629-0.316,1.568,0.625,1.568C52.555,66.305,52.244,65.994,52.555,65.68"/>
	<path fill-rule="evenodd" clip-rule="evenodd" fill="#E11026" d="M56.324,61.91c-0.627,0.314-0.627,1.258-0.314,1.567
		c0-0.31,0-0.623,0.629-0.938l0.316-0.314C56.639,61.91,56.639,61.91,56.324,61.91"/>
	<path fill-rule="evenodd" clip-rule="evenodd" fill="#E11026" d="M59.152,62.854c0-0.314-0.314-0.314-0.314-0.314
		c-0.629,0.314-0.314,1.254,0.314,1.254c0-0.315-0.314-0.315,0-0.625V62.854z"/>
	<path fill-rule="evenodd" clip-rule="evenodd" fill="#E11026" d="M57.582,63.793v-0.315c-0.316,0-0.316-0.31-0.627,0
		c-0.316,0.315-0.316,1.573,0.941,0.944C57.582,64.422,57.266,64.107,57.582,63.793"/>
	<path fill-rule="evenodd" clip-rule="evenodd" fill="#E11026" d="M38.738,62.225h-0.314c-0.315,0.63,0,1.253,0.314,1.253
		c0-0.31,0-0.31,0.315-0.938C39.053,62.539,39.053,62.225,38.738,62.225"/>
	<path fill-rule="evenodd" clip-rule="evenodd" fill="#E11026" d="M42.82,57.825c0.315,0,0.94-0.625,0.94-0.938
		c-0.311,0-0.625,0-0.94-0.314V57.825z"/>
	<rect x="25.548" y="3.81" fill-rule="evenodd" clip-rule="evenodd" fill="#27275D" width="47.735" height="10.364"/>
	<path fill="#25295B" d="M31.201,25.794c-0.941,1.256,0.629,2.198,1.57,1.57h0.315c0,0.314,0,0.314,0.315,0.314h0.314
		c0,0.314,0,0.628,0.627,0.628c-0.315-0.314,0-0.314,0-0.314c0.315,0,0,0.314,0,0.628c0,0.313,0.315,0.313,0.315,0.313
		c0,0.315,0.314,0.63,0.314,1.257c0,0.314-0.314,0.628-0.314,0.628c0.626,0.315,0.941-0.314,1.255-0.628v0.314
		c-0.314,0.629,0.63,0.942,0.63,0.942c0-0.313,0.314-0.942,1.256-1.256v-0.627v-0.315v-0.315c-0.316-0.627-0.316-1.255-0.316-1.569
		v-0.314h-0.626c-0.629,0-1.573-0.943-2.514-1.569c-0.627-0.63-0.941-0.944-0.941-1.886c0-0.628,0.314-1.256,0.314-1.883H33.4
		c0,0,0,0.313-0.315,0.313l-0.315-0.313h-0.314c0,0-0.312,0.313,0,0.627v0.314c0,0.314-0.312,0.314-0.312,0s0-1.256-0.63-1.256
		v0.315c0,0-0.314,0.313-0.627,0.313c0,0-0.314,0-0.314-0.313c0,0.627,0.314,0.941,0.941,0.941h0.315
		c0,0.314-0.315,0.314-0.315,0.314c-0.941-0.314-1.255,0-1.255,0.313h0.314h0.314c0.313,0.315,0.313,0.315,0.313,0.628
		c0,0,0,0.316-0.313,0.316h0.627c0,0,0-0.316,0.315,0h0.315v0.313c-0.63,0.314-0.315,1.257,0.312,1.257c0.314,0,0.314,0,0.314,0.313
		C32.457,27.051,31.201,26.737,31.201,25.794"/>
	<path fill="#25295B" d="M68.26,32.075h0.312c-0.312-0.315-0.312-0.315-0.627-0.315h0.314c0.312,0,0.312,0,0.627-0.313
		c-0.627,0-0.627-0.628-0.627-0.943v-0.313c0.312,0,0.312-0.314,0.312-0.943c-0.312,0.315-0.941,0.629-0.941,0v-0.314
		c0,0,0.314,0,0.314,0.314c0,0,0.314,0,0.314-0.627c0.312,0,0.312,0,0.312,0.313c0.314-0.313,0.314-1.569-0.627-1.569
		c-1.256,0-1.57,2.198-5.338,1.883c-0.314-0.314-0.314-0.314,0-0.314c2.197,0,4.082-1.256,4.709-1.569
		c1.256-0.943,0.314-1.884,0.943-2.514c-0.314,0-0.629,0.315-0.629,0.315c-0.314,0-0.631-0.315-0.631-0.942
		c0-0.315,0.316-0.315,0.631-0.315s0.314,0.315,0,0.629c0.314,0,0.629-0.314,0.629-0.629c0-0.628-0.314-0.942-0.943-0.942
		c-0.627,0-1.256,0.629-1.256,1.257c-0.314-0.315-0.314-0.315,0-0.628c-0.941,0,0,0.942-1.57,1.57
		c-1.256,0.629-4.396,1.256-4.396,0.629l0.314-0.314c0.314,0,0.314,0,0.314,0.314c0.311-0.314,0-0.629-0.629-0.629
		c-0.312,0-0.627,0.315-0.627,0.942c-0.629,0-0.943-0.313-0.943-0.627c-0.314,0-0.627,0.314-0.314,0.627
		c-0.941,0-1.885,0-1.885-0.942l0.316-0.315c0.314,0,0.627,0.63,0,0.63c0.314,0.314,0.939,0,0.939-0.315s-0.312-0.628-0.939-0.628
		c-0.629,0-1.57,0-1.57,1.257c-0.314-0.314-0.629-0.629,0-0.944c0-0.313-0.629-0.313-0.941,0.315
		c-0.314-0.315-0.629-0.315-0.629-0.628c-0.314-0.942,0.629-1.571,1.57-1.571c0.312,0,0.312,0,0.312,0.314c0,0-0.312,0.315-0.312,0
		c-0.314,0-0.314,0.628,0.941,0.628c0.312,0,0.943-0.313,1.256-0.628c0.312,0,0.312,0,0.312,0.315c0,0.313-0.312,0.313-0.625,0.313
		c0,0,0,0.629,0.625,0.629c0.629-0.314,1.258-0.629,1.258-1.257c0,0,0-0.314,0.314-0.314c0.941-0.313,0.941-2.198-0.629-2.198
		c-1.256,0-2.512,0.943-3.453,0.943l-0.314-0.315c0-0.314,0.314-0.628,0.627-0.314c0,0,0-0.628-0.941-0.628
		c-0.627,0-0.941,0.628-0.941,0.942v-0.628c-0.314,0-0.314,0.314-0.314,0.628c0,0.628,0.629,0.628,1.57,0.628
		c1.256,0,1.568,0,1.568-0.313c0.316,0,0.631,0.313,0.943,0.313c0-0.313,0-0.628,0.312-0.628c0.316,0,0.316,0.315,0.316,0.315
		c0,0.313,0,0.628-0.316,0.628c-2.197,0-5.025,0-5.025,2.198c0,0.943,1.887,2.513,5.969,2.513c4.084,0,6.281-1.57,7.852-1.57
		c0.314,0,0.941,0,0.941,0.627c0,0.943-3.141,2.199-5.023,2.199c-3.141,0-10.049-1.885-14.446-0.315
		c-0.63,0-0.943,0.315-1.886,0.315c-0.313,0-0.626,0.314-0.626,0.314s0.312,0.313,0.626,0.313c-0.626,0.314-1.255,0.629-1.569,0.629
		c0,0.314-0.315,0.941-0.629,0.941l-0.312,0.315h-0.315v0.628l-0.627-0.314h-0.313c-0.315,0.314-0.631,0.942-1.571,0.942h-0.314
		c-0.315,0.314-0.942,0.628-1.571,0.628c-0.941,0-1.256-0.314-1.57-0.628h-0.312c-0.63,0-2.515-0.315-2.515-1.256
		c0-0.315,0.315-0.315,0.315-0.942c0-0.314-0.315-0.629-0.315-0.629c-0.314,0.315-0.314,0.315-0.626,0.315h-0.314l-0.315-0.315
		c-0.315,0-0.315,0.315,0.315,1.256v0.315c-0.315,0-0.63-0.315-0.63-0.628c-0.314-0.314,0-0.628-0.627-0.943
		c0,0.315-0.314,0.629-0.629,0.629h-0.314c-0.313,0.314-0.313,1.256,0.943,0.942c0.313,0,0,0,0,0.314c-0.314,0-1.256,0-0.943,0.627
		c0.314,0,0.314,0.315,0.629,0.315v0.314v0.314c-0.315,0.314-0.315,0.314,0,0.314c0.627,0,0.627-0.628,0.941-0.628h0.315
		c-0.315,0.314-0.629,0.942,0,1.256c0.629,0.315,1.255,0,1.255-0.314h0.315c0,0.314,0,0.629-0.315,0.942c0.315,0,0.63,0,0.63-0.313
		c0,0.313-0.315,0.941-0.63,0.941c0,0,0.942,0.315,1.571-0.314v0.314c0.944,0,1.57-0.628,2.197-0.628
		c0.315,0,0.315,0.314-0.312,0.628h1.57c0,0.315-0.629,0.315-0.314,0.628l0.629-0.313c0.312,0-0.629,0.628,0,0.941
		c0.941-1.57,1.568-0.941,2.512-1.57h0.313c-0.313,0.314-0.313,0.314-0.629,0.629c0.629,0,1.256-0.315,1.256-0.943v-0.942v-0.314
		c0.315,0,0.315,0,0.628,0.314c0.943,0,0.629,0.942,0,0.942c0.313,0.314,0.943,0,1.258-0.313c0,0,0.314,0.313,0,0.313
		c1.256,0.314,0.94-0.942,1.256-0.628c2.512,0.628,4.082-2.512,6.909-2.826c0,0.314-0.316,0.628,0,0.941H53.5
		c-0.314,0.315-0.314,0.629,0.314,0.629c-0.314,0,0-0.314,0-0.314c0.314,0,0,0.314,0.627,0.314c0.314,0,0.941,0.314,1.256,0.628
		c-0.627,0-0.941,0.314-1.256,0.314c-0.941,0.629-1.256-1.571-2.197-1.256h-0.316c0.316,0,0.316,0.314,0.316,0.314v0.314
		c0,0.314-0.316,0.628-0.631,0.628c0,0,0,0.314,0.314,0.314h0.627c0,0.628-1.568-0.314-1.256,0.942h0.314c0,0,0-0.314,0.314-0.314
		l0.316,0.314c0.311,0,0.311,0.314,0.311,0.314v0.315c0,0,0.314-0.629,0.314-0.315v0.315h0.316H53.5l0.314,0.313v0.315
		c0-0.315,0.314-0.315,0.314-0.628v-0.315c0,0,0.312,0,0.627,0.315c0,0.313,0.314,0.628,0.941,0.313
		c0.627-0.313,0-0.942,0.627-0.942c0.316-0.314,0.943-0.314,0.943,0s-0.627,0.629-0.627,0.314c0,0.628,1.568,0.943,1.883-0.314
		c0-0.314,0.314-0.942,0.314-0.942c0.314,0,0.314,0.315,0.314,0.315c1.256,0.313,0.314-0.629,0.629-1.257
		c0.312-0.314,2.197-0.314,1.883,0.314c0.629,0.314,0.629-0.942-0.631-0.942c-1.881,0-2.195,0.628-2.824,0.314
		c-0.941-0.314,0.943-1.256-2.826-2.198c-0.312,0,0-0.314,0-0.314c2.514,0,3.141,1.57,5.34,1.57c0.627,0,2.512-0.314,2.197,0.942
		c0.629,0,0.314-0.629,0.629-0.629c0,0,0.314,0,0,0.315c0.314-0.315,0.314-0.315,0.314-0.628c-0.314-0.314-0.314-0.314,0-0.314
		c0.312,0.314,0.941,0.627,0.941,0c-0.629-0.314,0.629-0.942,0.941-0.942c0.314,0,0.629,0.313,0.629,0.313
		c-0.314,0.943,0,1.571-0.314,2.199c0,0.265-0.67,0.084-1.256,0.02v0.294c0,0.314,0,0.628-0.314,0.628h-0.627
		c0,0.628,0.627,0.628,1.256,0.315l0.314,0.313c-0.629,0.314-1.258,0.628-0.629,0.943c0,0,0-0.315,0.314-0.315h0.314h0.312
		c0.314,0,0.314,0.315,0.314,0.315v0.313c0.314,0,0-0.942,0.629-1.256c0,0,0.311,0.314,0,0.314c0,0.314-0.314,0.942,0.311,0.942
		v-0.313c0.316-0.315,0.316-0.315,0.631-0.315c0,0,0.314,0,0.314,0.315h0.314c0.312-0.943-0.629-0.943-0.629-1.256
		c0-0.629,0.941,0,0.941-0.943c0-0.314,0-0.628-0.312-0.628C67.945,32.389,67.945,32.075,68.26,32.075"/>
	<path fill="#25295B" d="M38.109,28.621c0-0.629,0.315-0.943,0.944-1.256c0.314,0,0.314,0.313,0,0.313
		c-0.315,0.314-0.944,0.943-0.944,1.885c0,0.313,0.315,0.628,0.629,0.941c-0.314-0.313,0-1.256,0.315-1.57
		c0.314-0.313,0.314,0,0.314,0c-0.314,0.942-0.314,1.257-0.314,1.57c0,0,0,0.315-0.629,0.315c0,0-0.315,0-0.315-0.315
		c0,0-0.312,0-0.312,0.315c0,0.314,0.312,0.628,0.312,0.628s-0.312,0-0.312-0.314c-0.629,0-0.629,1.256,0.941,1.256
		c0.944,0,1.885-0.629,1.885-2.198c0,0,0-0.315,0.313,0c0,0.313,0,0.942-0.313,1.569c2.196-0.313,0.94-2.197,1.571-3.139
		c0.313,0.313,0,2.198,0.313,2.198c0-0.628,0.312-1.256,0.627-1.571c0.315,0.315,0.315,0.943,0.315,1.256
		c0.312-0.313,0.626-0.941,0.626-1.57c0.315,0,0.63,0.314,0.944,0c0,0-0.629-0.313-0.629-0.627c1.885,0,1.885-1.57,0.943-1.57
		c0.312,0,0.312,0.941-0.314,0.941c-0.314,0-0.629-0.313-0.629-0.628v-0.313c0.314,0,0.314,0,0.314,0.313
		c0.314,0,0.629-0.313,0.629-1.255c0.941-0.314,1.255-1.257,0.941-2.514c0,0.315-0.315,0.628-0.629,0.315
		c0.629-0.943,0.629-1.884,0-2.199c0,0.315,0,0.628-0.312,0.628c-0.314-0.313,0-0.628,0-0.628c0-0.315-0.314-0.628-0.629-0.628
		c0.314,0-0.314,0.628-0.63,0.628c-0.313,0-0.313-0.315,0-0.628c-0.941,0-1.257,0.628-1.257,0.628c-0.312,0-0.312-0.315,0-0.628
		c-0.94,0-0.94,1.256-1.256,1.256c-0.313-0.313-0.313-0.943,0-1.256c-0.627,0-1.569,1.256-1.569,2.198
		c0,0.314,0.315,0.314,0.315,0.629c0,0.313-0.627,0.313-0.315-0.315c-0.941,0.628-0.312,1.257-0.312,1.257
		c0,0.313-0.315,0-0.315,0.943c0,0.627,0,0.941-0.629,0.941c-0.314,0-0.314,0-0.314-0.314c0-0.313,0-0.313,0.314-0.313
		c-0.314-0.629-1.256-0.314-1.256,0.627c0,0,0.315,0.315,0.627,0.628C37.797,27.678,37.797,27.992,38.109,28.621 M44.076,23.909
		l0.315,0.315c0-0.315,0-0.315,0.314-0.628c0,0,0.314,0,0.314,0.313c0,0.315-0.314,0.315-0.314,0.629c-0.314,0-0.63,0-0.943-0.314
		L44.076,23.909z M41.879,22.653c0.315,0,0.629,0,0.629,0.314c0,0-0.313,0,0,0.314h0.312c0,0,0,0.315-0.312,0.628
		c-0.313-0.313-0.313-0.313-0.629-0.628V22.653z M41.25,24.538v0.313c0,0.315,0,0.315,0.944,0.63l0.313-0.315
		c-0.313-0.315-0.313-0.628-0.313-0.628c0-0.314,0.313-0.314,0.313-0.314v0.314c0,0,0,0.313,0.312,0.313
		c0.315,0.315,0.315,0,0.631,0v-0.313c0.312,0.313,0.312,0.313,0,0.313c0,0.315-0.315,0.63-0.631,0.315l-0.312,0.629
		c0.942,0.313,1.255,0.313,1.255,0h0.313c0.315,0,0,0.313,0,0.313c-0.313,0.314-0.626,0.314-1.257,0.314
		c0,0.315,0,0.628-0.312,0.628c-0.313,0-0.629,0.315-0.944,0.315c-0.313-0.315-0.313-0.628,0-0.943
		c-0.313-0.314-0.313-0.314,0-0.627c-0.627-0.314-0.627-0.629-0.627-0.944C40.937,24.538,40.937,24.538,41.25,24.538"/>
	<polygon fill="#FFFFFF" points="34.521,6.911 36.481,6.911 36.481,12.823 38.137,12.823 38.137,6.911 40.13,6.911 40.13,5.524 
		34.521,5.524 	"/>
	<path fill="#FFFFFF" d="M44.114,7.409c-0.303,0-0.607,0.076-0.855,0.206c-0.26,0.13-0.477,0.314-0.65,0.541h-0.021V5.135H40.94
		v7.688h1.646v-3.14c0-0.119,0.012-0.26,0.055-0.368c0.119-0.293,0.39-0.574,0.822-0.574c0.617,0,0.855,0.476,0.855,1.169v2.913
		h1.646V9.726C45.965,8.134,45.164,7.409,44.114,7.409"/>
	<path fill="#FFFFFF" d="M49.775,7.409c-1.841,0-2.675,1.483-2.675,2.826c0,1.656,1.029,2.706,2.826,2.706
		c0.714,0,1.374-0.119,1.917-0.335l-0.217-1.115c-0.443,0.14-0.898,0.216-1.462,0.216c-0.769,0-1.439-0.325-1.494-1.007h3.411
		c0.021-0.119,0.053-0.368,0.053-0.649C52.135,8.74,51.486,7.409,49.775,7.409 M48.66,9.574c0.044-0.444,0.324-1.072,1.017-1.072
		c0.76,0,0.931,0.672,0.931,1.072H48.66z"/>
	<polygon fill="#FFFFFF" points="54.949,6.878 58.582,6.816 59.057,5.546 53.295,5.525 53.295,12.822 54.949,12.822 54.949,9.888 
		57.57,9.888 57.57,8.545 54.949,8.545 	"/>
	<path fill="#FFFFFF" d="M62.258,5.525h-2.166l-2.23,7.297h1.711l0.52-1.873h2.09l0.562,1.873h1.777L62.258,5.525z M60.33,9.715
		l0.434-1.549c0.119-0.422,0.227-0.974,0.336-1.407h0.021c0.107,0.433,0.238,0.975,0.367,1.407l0.455,1.549H60.33z"/>
</g>
</svg>
